<svg fill="none" height="58" viewBox="0 0 204 58" width="204" xmlns="http://www.w3.org/2000/svg"><g fill="#fff"><path d="m27.1721 30.277c-.0424-5.058 4.1396-7.5163 4.3232-7.6293-2.3735-3.4473-6.0469-3.9277-7.3326-3.9701-3.08-.3249-6.0752 1.8508-7.6434 1.8508-1.5965 0-4.0266-1.8084-6.62621-1.766-3.34842.0565-6.49905 1.9921-8.20858 5.0156-3.54622 6.1458-.904215 15.1879 2.50072 20.1611 1.70953 2.4301 3.6875 5.1569 6.30127 5.058 2.5431-.0989 3.5038-1.6248 6.5697-1.6248 3.0517 0 3.9418 1.6248 6.5979 1.5683 2.7409-.0424 4.4504-2.4442 6.1035-4.9026 1.9638-2.7833 2.755-5.5383 2.7832-5.6796-.0706-.0282-5.3122-2.0345-5.3687-8.0814"/><path d="m22.1564 15.4143c1.3704-1.7096 2.3029-4.0407 2.0486-6.4143-1.978.08477-4.4646 1.3705-5.8916 3.0517-1.2574 1.4835-2.3876 3.8995-2.1051 6.1741 2.2323.1696 4.5211-1.1302 5.9481-2.8115"/><path d="m50.8024 15 1.0682-3.0795h4.5454l1.0625 3.0795h1.8637l-4.1875-11.63636h-2.0285l-4.1875 11.63636zm1.5795-4.5568 1.7159-4.96593h.0909l1.716 4.96593zm14.8764-4.17047h-1.8238l-2.2046 6.71587h-.0909l-2.2102-6.71587h-1.8239l3.1705 8.72727h1.8182zm3.8708 8.92047c1.4432 0 2.2557-.733 2.5795-1.3864h.0682v1.1932h1.6591v-5.79545c0-2.53978-2-3.04546-3.3864-3.04546-1.5795 0-3.0341.63636-3.6022 2.22727l1.5966.36364c.25-.61932.8863-1.21591 2.0284-1.21591 1.0966 0 1.6591.57386 1.6591 1.5625v.03977c0 .61932-.6364.60796-2.2046.78978-1.6534.19316-3.3466.62496-3.3466 2.60796 0 1.7159 1.2898 2.6591 2.9489 2.6591zm.3693-1.3637c-.9602 0-1.6534-.4318-1.6534-1.2727 0-.9091.8068-1.2329 1.7898-1.3636.5511-.0739 1.8579-.2216 2.1022-.4659v1.125c0 1.0341-.8238 1.9772-2.2386 1.9772zm6.2003 1.1705h1.6988v-8.72727h-1.6988zm.8579-10.07386c.5853 0 1.0739-.45455 1.0739-1.01137s-.4886-1.01704-1.0739-1.01704c-.5909 0-1.0738.46022-1.0738 1.01704s.4829 1.01137 1.0738 1.01137zm4.8253-1.5625h-1.6988v11.63636h1.6988zm4.8253 11.82956c1.4432 0 2.2557-.733 2.5796-1.3864h.0681v1.1932h1.6591v-5.79545c0-2.53978-2-3.04546-3.3863-3.04546-1.5796 0-3.0341.63636-3.6023 2.22727l1.5966.36364c.25-.61932.8863-1.21591 2.0284-1.21591 1.0966 0 1.6591.57386 1.6591 1.5625v.03977c0 .61932-.6364.60796-2.2046.78978-1.6534.19316-3.3466.62496-3.3466 2.60796 0 1.7159 1.2898 2.6591 2.9489 2.6591zm.3693-1.3637c-.9602 0-1.6534-.4318-1.6534-1.2727 0-.9091.8068-1.2329 1.7898-1.3636.5511-.0739 1.8579-.2216 2.1023-.4659v1.125c0 1.0341-.8239 1.9772-2.2387 1.9772zm6.3367 1.1705h1.6591v-1.358h.142c.3068.5569.9318 1.5285 2.5227 1.5285 2.114 0 3.648-1.6932 3.648-4.5171 0-2.82954-1.557-4.49431-3.665-4.49431-1.6193 0-2.2046.98864-2.5057 1.52841h-.1023v-4.32386h-1.6988zm1.6647-4.3636c0-1.8239.7955-3.03413 2.2785-3.03413 1.5396 0 2.3126 1.30114 2.3126 3.03413 0 1.75-.796 3.0852-2.3126 3.0852-1.4603 0-2.2785-1.25-2.2785-3.0852zm9.9131-7.27276h-1.699v11.63636h1.699zm6.047 11.81246c1.904 0 3.25-.9375 3.637-2.3579l-1.608-.2898c-.307.8239-1.046 1.2443-2.012 1.2443-1.454 0-2.432-.9432-2.477-2.625h6.204v-.6022c0-3.15345-1.886-4.38641-3.863-4.38641-2.432 0-4.034 1.85227-4.034 4.53411 0 2.7102 1.579 4.4829 4.153 4.4829zm-2.454-5.3011c.068-1.23864.966-2.3125 2.346-2.3125 1.318 0 2.182.97727 2.188 2.3125zm15.994 5.3011c2.46 0 4.068-1.8011 4.068-4.5 0-2.71587-1.608-4.51701-4.068-4.51701s-4.068 1.80114-4.068 4.51701c0 2.6989 1.608 4.5 4.068 4.5zm.006-1.4261c-1.608 0-2.358-1.4034-2.358-3.0795 0-1.6705.75-3.09095 2.358-3.09095 1.596 0 2.346 1.42045 2.346 3.09095 0 1.6761-.75 3.0795-2.346 3.0795zm7.657-3.93182c0-1.39204.853-2.1875 2.034-2.1875 1.154 0 1.853.75568 1.853 2.02273v5.34659h1.699v-5.55114c0-2.15909-1.188-3.28977-2.972-3.28977-1.313 0-2.171.60796-2.574 1.53409h-.108v-1.42045h-1.631v8.72727h1.699zm16.172-3.54545h-1.79v-2.09091h-1.698v2.09091h-1.279v1.36363h1.279v5.15344c-.006 1.5852 1.204 2.3522 2.545 2.3238.54-.0056.903-.1079 1.102-.1818l-.307-1.4034c-.113.0227-.323.0739-.596.0739-.551 0-1.046-.1818-1.046-1.1648v-4.80114h1.79zm3.766 3.54545c0-1.39204.88-2.1875 2.091-2.1875 1.17 0 1.869.74432 1.869 2.02273v5.34659h1.699v-5.55114c0-2.17613-1.193-3.28977-2.989-3.28977-1.358 0-2.176.59091-2.585 1.53409h-.108v-4.32954h-1.676v11.63636h1.699zm11.687 5.35792c1.904 0 3.25-.9375 3.637-2.3579l-1.608-.2898c-.307.8239-1.046 1.2443-2.012 1.2443-1.454 0-2.431-.9432-2.477-2.625h6.205v-.6022c0-3.15345-1.887-4.38641-3.864-4.38641-2.432 0-4.034 1.85227-4.034 4.53411 0 2.7102 1.579 4.4829 4.153 4.4829zm-2.454-5.3011c.068-1.23864.966-2.3125 2.346-2.3125 1.319 0 2.182.97727 2.188 2.3125z"/><path d="m53.8251 50 1.9205-5.7386h8.75l1.9318 5.7386h4.5l-8.2046-23.2727h-5.2045l-8.1932 23.2727zm3.0568-9.125 3.1478-9.375h.1818l3.1477 9.375zm16.929 15.6705h4.1136v-9.2955h.1705c.6477 1.2727 2 3.0568 5 3.0568 4.1136 0 7.1932-3.2613 7.1932-9.0113 0-5.8182-3.1705-8.9773-7.2046-8.9773-3.0795 0-4.3636 1.8523-4.9886 3.1136h-.2386v-2.8863h-4.0455zm4.0341-15.2728c0-3.3863 1.4545-5.5795 4.1023-5.5795 2.7386 0 4.1477 2.3295 4.1477 5.5795 0 3.2728-1.4318 5.6591-4.1477 5.6591-2.625 0-4.1023-2.2727-4.1023-5.6591zm15.9659 15.2728h4.1136v-9.2955h.1705c.6477 1.2727 2 3.0568 5 3.0568 4.114 0 7.193-3.2613 7.193-9.0113 0-5.8182-3.17-8.9773-7.204-8.9773-3.08 0-4.364 1.8523-4.989 3.1136h-.2386v-2.8863h-4.0455zm4.0341-15.2728c0-3.3863 1.4545-5.5795 4.102-5.5795 2.739 0 4.148 2.3295 4.148 5.5795 0 3.2728-1.432 5.6591-4.148 5.6591-2.6247 0-4.102-2.2727-4.102-5.6591zm36.733-8.1477h4.057c-.08-3.9318-3.432-6.7159-8.387-6.7159-4.886 0-8.556 2.75-8.545 6.8636 0 3.3409 2.375 5.2614 6.204 6.25l2.648.6818c2.512.6364 4.171 1.4205 4.182 3.2273-.011 1.9887-1.898 3.3182-4.648 3.3182-2.636 0-4.682-1.1818-4.852-3.625h-4.148c.171 4.625 3.614 7.2273 9.034 7.2273 5.58 0 8.819-2.7841 8.83-6.8864-.011-4.0341-3.341-5.875-6.841-6.7045l-2.182-.5455c-1.909-.4545-3.977-1.2614-3.954-3.2045.011-1.75 1.579-3.0341 4.216-3.0341 2.511 0 4.17 1.1704 4.386 3.1477zm16.668-.5795h-3.444v-4.1819h-4.113v4.1819h-2.478v3.1818h2.478v9.7045c-.023 3.2841 2.363 4.8977 5.454 4.8068 1.171-.0341 1.978-.2613 2.421-.4091l-.693-3.2159c-.228.0569-.694.1591-1.205.1591-1.034 0-1.864-.3636-1.864-2.0227v-9.0227h3.444zm10.866 17.7954c5.114 0 8.364-3.6023 8.364-9 0-5.4091-3.25-9.0227-8.364-9.0227s-8.364 3.6136-8.364 9.0227c0 5.3977 3.25 9 8.364 9zm.023-3.2954c-2.83 0-4.216-2.5228-4.216-5.716 0-3.1931 1.386-5.75 4.216-5.75 2.784 0 4.17 2.5569 4.17 5.75 0 3.1932-1.386 5.716-4.17 5.716zm11.832 2.9545h4.114v-10.2614c0-2.2159 1.67-3.7841 3.932-3.7841.693 0 1.556.125 1.909.2387v-3.7841c-.375-.0682-1.023-.1136-1.478-.1136-2 0-3.67 1.1363-4.306 3.159h-.182v-2.909h-3.989zm19.696.3409c4.068 0 6.864-1.9886 7.591-5.0227l-3.841-.4318c-.557 1.4772-1.92 2.25-3.693 2.25-2.659 0-4.42-1.75-4.455-4.7387h12.16v-1.2613c0-6.125-3.682-8.8182-7.978-8.8182-5 0-8.261 3.6704-8.261 9.0568 0 5.4773 3.216 8.9659 8.477 8.9659zm-4.386-10.7159c.125-2.2273 1.773-4.1023 4.227-4.1023 2.364 0 3.955 1.7273 3.977 4.1023z"/></g></svg>