<svg fill="none" height="72" viewBox="0 0 72 72" width="72" xmlns="http://www.w3.org/2000/svg"><path clip-rule="evenodd" d="m36 0c-19.8822 0-36 16.1178-36 36 0 19.8823 16.1178 36 36 36 19.8823 0 36-16.1177 36-36 0-19.8822-16.1177-36-36-36zm-15.0126 24.6039c-.0733-2.098 1.5622-4.0325 3.7724-4.0325h22.6475c2.2102 0 3.8454 1.9348 3.7721 4.0325-.0703 2.0155.021 4.6262.6782 6.7547.6596 2.1351 1.7714 3.4872 3.5923 3.6612v1.9604c-1.821.1735-2.9328 1.5261-3.5923 3.6612-.6571 2.1288-.7485 4.7392-.6782 6.7547.0733 2.098-1.5619 4.0325-3.7721 4.0325h-22.6472c-2.2106 0-3.846-1.9348-3.7728-4.0325.0703-2.0155-.021-4.6259-.6782-6.7547-.6594-2.1351-1.7739-3.4872-3.5948-3.6612v-1.9604c1.8209-.1736 2.9354-1.5264 3.5949-3.6612.6571-2.1288.7485-4.7392.6782-6.7547zm16.2577 19.6028c3.5759 0 5.7306-1.7519 5.7306-4.6407 0-2.1839-1.5372-3.7651-3.8202-4.0155v-.0908c1.6771-.273 2.9935-1.8311 2.9935-3.5716 0-2.4797-1.9569-4.0947-4.9385-4.0947h-6.0525c-.1741 0-.3411.0691-.4642.1922-.1231.1232-.1923.2902-.1923.4643v15.1003c0 .1741.0692.3411.1923.4642.1231.1232.2901.1923.4642.1923zm-4.1345-14.3321h3.4708c1.8869 0 2.9581.8416 2.9584 2.3659 0 1.6265-1.2461 2.5365-3.5059 2.5365h-2.9233zm0 12.2502v-5.4026-.0003h3.4472c2.4692 0 3.7505.9103 3.7505 2.6846 0 1.7742-1.2463 2.7183-3.5992 2.7183z" fill="#7952b3" fill-rule="evenodd"/></svg>