<svg fill="none" height="72" viewBox="0 0 72 72" width="72" xmlns="http://www.w3.org/2000/svg"><path clip-rule="evenodd" d="m36 0c-19.8822 0-36 16.1178-36 36 0 19.8823 16.1178 36 36 36 19.8823 0 36-16.1177 36-36 0-19.8822-16.1177-36-36-36zm-5.418 26.9023c-1.851.186-3.7545.7845-5.082 1.3395v14.8845c1.3755-.525 3.1605-1.0365 4.9305-1.2165 1.6395-.165 3.417-.0555 4.8195.7395v-14.619c-.981-1.0335-2.673-1.329-4.668-1.128zm10.836 0c-1.995-.201-3.687.0945-4.668 1.128v14.619c1.4025-.7965 3.1785-.9045 4.8195-.738 1.77.177 3.5535.69 4.9305 1.215v-14.8845c-1.3275-.555-3.231-1.1535-5.082-1.3395zm-10.9875-1.4925c1.95-.195 4.092-.006 5.5695 1.2645 1.4775-1.2705 3.6195-1.461 5.5695-1.2645 2.271.2295 4.563 1.008 5.991 1.6575.131.0596.2421.1556.3201.2767.0779.121.1194.2619.1194.4058v16.5c0 .1255-.0316.249-.0917.3591-.0601.1102-.1469.2035-.2524.2714s-.2264.1083-.3516.1173c-.1251.0091-.2506-.0133-.3648-.0653-1.3215-.6-3.4545-1.3215-5.5215-1.53-2.112-.213-3.8835.1305-4.833 1.3155-.0703.0876-.1593.1583-.2606.2069-.1012.0486-.2121.0738-.3244.0738s-.2232-.0252-.3244-.0738c-.1013-.0486-.1903-.1193-.2606-.2069-.9495-1.185-2.721-1.5285-4.8345-1.3155-2.0655.2085-4.197.93-5.52 1.53-.1142.052-.2397.0744-.3648.0653-.1252-.009-.2461-.0494-.3516-.1173s-.1923-.1612-.2524-.2714c-.0601-.1101-.0917-.2336-.0917-.3591v-16.5c0-.1439.0415-.2848.1194-.4058.078-.1211.1891-.2171.3201-.2767 1.428-.6495 3.72-1.428 5.991-1.6575z" fill="#1d4b40" fill-rule="evenodd"/></svg>