<svg fill="none" height="58" viewBox="0 0 237 58" width="237" xmlns="http://www.w3.org/2000/svg"><g fill="#fff"><path d="m.160806 10.8896c-.0955172.3356-.160806.6975-.160806 1.1109v34.0049c0 .4071.0652889.7652.15708 1.097l19.08512-18.0811c0-.0001-19.081394-18.1317-19.081394-18.1317z"/><path d="m26.6898 21.964-22.2832-12.3952c-.88837-.54025-1.76293-.67718-2.50181-.48877l19.16561 18.21057s5.6194-5.3266 5.6194-5.3266z"/><path d="m34.9057 26.5342-5.9475-3.3086-6.092 5.7702 6.2051 5.8985 5.7867-3.1779c2.8248-1.6097 1.7944-4.2008.0477-5.1822z"/><path d="m1.84814 48.9046c.7502.2098 1.64617.0842 2.55717-.47l22.35109-12.272-5.7212-5.436c0 .0001-19.18706 18.178-19.18706 18.178z"/><path d="m61.7691 7.03977h1.8012c-.3921-2.26704-2.3296-3.83522-4.8409-3.83522-3.0114 0-5.2103 2.26704-5.2103 5.98295 0 3.6818 2.1364 5.9716 5.2898 5.9716 2.8239 0 4.8409-1.8523 4.8409-4.7898v-1.32385h-4.5738v1.44885h2.875c-.0398 1.875-1.2785 3.0625-3.1421 3.0625-2.0511 0-3.5455-1.5511-3.5455-4.38066 0-2.81819 1.5057-4.36932 3.4773-4.36932 1.5455 0 2.5909.85227 3.0284 2.23295zm7.7344 8.13633c1.9034 0 3.25-.9375 3.6364-2.3579l-1.608-.2898c-.3068.8239-1.0454 1.2443-2.0113 1.2443-1.4546 0-2.4319-.9432-2.4773-2.625h6.2045v-.6022c0-3.15345-1.8863-4.38641-3.8636-4.38641-2.4318 0-4.0341 1.85227-4.0341 4.53411 0 2.7102 1.5795 4.4829 4.1534 4.4829zm-2.4545-5.3011c.0681-1.23864.9659-2.3125 2.3466-2.3125 1.3181 0 2.1818.97727 2.1875 2.3125zm12.1576-3.60227h-1.7897v-2.09091h-1.6989v2.09091h-1.2784v1.36363h1.2784v5.15344c-.0057 1.5852 1.2045 2.3522 2.5455 2.3238.5397-.0056.9034-.1079 1.1022-.1818l-.3068-1.4034c-.1136.0227-.3239.0739-.5966.0739-.5511 0-1.0454-.1818-1.0454-1.1648v-4.80114h1.7897zm6.1137 8.72727h1.6988v-8.72727h-1.6988zm.8579-10.07386c.5852 0 1.0739-.45455 1.0739-1.01137s-.4887-1.01704-1.0739-1.01704c-.5909 0-1.0738.46022-1.0738 1.01704s.4829 1.01137 1.0738 1.01137zm7.2003 1.34659h-1.7898v-2.09091h-1.6988v2.09091h-1.2784v1.36363h1.2784v5.15344c-.0057 1.5852 1.2045 2.3522 2.5454 2.3238.5398-.0056.9034-.1079 1.1023-.1818l-.3068-1.4034c-.1137.0227-.3239.0739-.5966.0739-.5511 0-1.0455-.1818-1.0455-1.1648v-4.80114h1.7898zm9.7895 8.90337c2.461 0 4.068-1.8011 4.068-4.5 0-2.71587-1.607-4.51701-4.068-4.51701-2.46 0-4.0679 1.80114-4.0679 4.51701 0 2.6989 1.6079 4.5 4.0679 4.5zm.006-1.4261c-1.608 0-2.358-1.4034-2.358-3.0795 0-1.6705.75-3.09095 2.358-3.09095 1.597 0 2.347 1.42045 2.347 3.09095 0 1.6761-.75 3.0795-2.347 3.0795zm7.658-3.93182c0-1.39204.852-2.1875 2.034-2.1875 1.153 0 1.852.75568 1.852 2.02273v5.34659h1.699v-5.55114c0-2.15909-1.188-3.28977-2.972-3.28977-1.312 0-2.17.60796-2.574 1.53409h-.108v-1.42045h-1.63v8.72727h1.699z"/><path d="m70.5021 34.1591h4.2954c-.7159-4.5682-4.6704-7.75-9.8181-7.75-6.0909 0-10.6591 4.4773-10.6591 11.9773 0 7.3636 4.3636 11.9318 10.7841 11.9318 5.7613 0 9.8863-3.7046 9.8863-9.7046v-2.7954h-9.4432v3.2954h5.3637c-.0682 3.3182-2.2841 5.4205-5.7841 5.4205-3.8977 0-6.5682-2.9205-6.5682-8.1932 0-5.2386 2.7159-8.1477 6.4773-8.1477 2.8068 0 4.7159 1.5 5.4659 3.9659zm15.9971 16.1818c5.1137 0 8.3637-3.6023 8.3637-9 0-5.4091-3.25-9.0227-8.3637-9.0227-5.1136 0-8.3636 3.6136-8.3636 9.0227 0 5.3977 3.25 9 8.3636 9zm.0228-3.2954c-2.8296 0-4.2159-2.5228-4.2159-5.716 0-3.1931 1.3863-5.75 4.2159-5.75 2.7841 0 4.1704 2.5569 4.1704 5.75 0 3.1932-1.3863 5.716-4.1704 5.716zm19.446 3.2954c5.114 0 8.364-3.6023 8.364-9 0-5.4091-3.25-9.0227-8.364-9.0227s-8.3636 3.6136-8.3636 9.0227c0 5.3977 3.2496 9 8.3636 9zm.023-3.2954c-2.83 0-4.216-2.5228-4.216-5.716 0-3.1931 1.386-5.75 4.216-5.75 2.784 0 4.17 2.5569 4.17 5.75 0 3.1932-1.386 5.716-4.17 5.716zm19.423 9.8636c4.716 0 8.193-2.1591 8.193-6.625v-17.7386h-4.057v2.8863h-.227c-.625-1.2613-1.932-3.1136-5.011-3.1136-4.034 0-7.205 3.1591-7.205 8.8977 0 5.6932 3.171 8.5341 7.193 8.5341 2.989 0 4.387-1.6023 5.023-2.8864h.205v3.3069c0 2.5681-1.705 3.625-4.046 3.625-2.477 0-3.568-1.1705-4.068-2.1932l-3.705.8977c.75 2.4432 3.262 4.4091 7.705 4.4091zm.034-10.3864c-2.716 0-4.148-2.1136-4.148-5.3295 0-3.1705 1.409-5.5 4.148-5.5 2.648 0 4.102 2.1932 4.102 5.5 0 3.3295-1.477 5.3295-4.102 5.3295zm16.489-19.7954h-4.114v23.2727h4.114zm11.957 23.6136c4.068 0 6.864-1.9886 7.591-5.0227l-3.841-.4318c-.557 1.4772-1.92 2.25-3.693 2.25-2.659 0-4.421-1.75-4.455-4.7387h12.159v-1.2613c0-6.125-3.681-8.8182-7.977-8.8182-5 0-8.261 3.6704-8.261 9.0568 0 5.4773 3.216 8.9659 8.477 8.9659zm-4.386-10.7159c.125-2.2273 1.772-4.1023 4.227-4.1023 2.364 0 3.955 1.7273 3.977 4.1023zm23.747 10.375h4.216v-7.8636h4.454c5.375 0 8.262-3.2273 8.262-7.7046 0-4.4432-2.853-7.7045-8.205-7.7045h-8.727zm4.216-11.3295v-8.4205h3.863c3.16 0 4.557 1.7045 4.557 4.1818s-1.397 4.2387-4.534 4.2387zm20.309-11.9432h-4.113v23.2727h4.113zm9.253 23.625c2.739 0 4.375-1.2841 5.125-2.75h.137v2.3977h3.954v-11.6818c0-4.6137-3.761-6-7.091-6-3.67 0-6.488 1.6363-7.397 4.8182l3.841.5454c.409-1.1932 1.568-2.2159 3.579-2.2159 1.909 0 2.955.9773 2.955 2.6932v.0682c0 1.1818-1.239 1.2386-4.319 1.5682-3.386.3636-6.625 1.375-6.625 5.3068 0 3.4318 2.512 5.25 5.841 5.25zm1.069-3.0228c-1.716 0-2.944-.784-2.944-2.2954 0-1.5796 1.375-2.2386 3.216-2.5 1.08-.1477 3.239-.4205 3.773-.8523v2.0568c0 1.9432-1.568 3.5909-4.045 3.5909zm14.215 9.216c3.205 0 5.057-1.6478 6.046-4.4319l7.011-19.5454-4.397-.0227-4.035 13.1818h-.181l-4.023-13.1818h-4.364l6.33 17.8181-.352.9432c-.762 1.9887-1.966 2.125-3.762 1.6023l-.954 3.2045c.556.2273 1.556.4319 2.681.4319z"/></g></svg>