<svg fill="none" height="72" viewBox="0 0 72 72" width="72" xmlns="http://www.w3.org/2000/svg"><rect fill="#f0db4f" height="72" rx="36" width="72"/><path d="m54.0417 40.0742c-.4025-2.5095-2.0389-4.6164-6.8852-6.5821-1.6834-.7737-3.5603-1.3279-4.1197-2.6035-.1986-.7424-.2248-1.1607-.0993-1.6103.3607-1.4586 2.1016-1.9134 3.4818-1.4952.8888.298 1.7305.9829 2.2376 2.0755 2.3735-1.5369 2.3683-1.5265 4.0256-2.5825-.6065-.9411-.9306-1.3751-1.328-1.7776-1.4272-1.5945-3.372-2.4153-6.4827-2.3526-.5384.068-1.0821.1411-1.6206.2091-1.5527.3921-3.0323 1.2077-3.9001 2.3004-2.6035 2.9538-1.8612 8.1242 1.307 10.2521 3.1211 2.3421 7.706 2.8754 8.2916 5.0659.5698 2.682-1.9709 3.5498-4.4961 3.2414-1.8612-.3869-2.8962-1.3331-4.0151-3.0532-2.0598 1.192-2.0598 1.192-4.1771 2.4102.5019 1.0978 1.0299 1.5945 1.8716 2.546 3.9837 4.0412 13.9535 3.8426 15.7415-2.2742.0731-.2092.5542-1.6103.1672-3.7694zm-20.5982-16.6042h-5.1444c0 4.4438-.0208 8.8563-.0208 13.3001 0 2.8283.1464 5.4214-.3137 6.2161-.7528 1.5631-2.7029 1.3697-3.5916 1.0664-.9045-.4444-1.3645-1.0769-1.8978-1.9709-.1464-.2562-.2562-.4548-.2928-.4705-1.3958.8522-2.7865 1.7095-4.1824 2.5617.6954 1.4273 1.72 2.6663 3.0322 3.4714 1.9605 1.1763 4.5954 1.537 7.3506.9044 1.7932-.5228 3.3407-1.6049 4.151-3.2518 1.1711-2.1591.9201-4.7731.9097-7.6642.0261-4.7157 0-9.4313 0-14.1627z" fill="#323330"/></svg>