<svg fill="none" height="503" viewBox="0 0 2498 503" width="2498" xmlns="http://www.w3.org/2000/svg"><path d="m.189382.954263c2.051958-.376048 3.734398-.95858618 5.410308-.95423881 69.15801.26736381 138.32031.16519281 207.46931 1.13030581 23.568.32606 45.222 8.64042 64.583 22.42157 44.193 31.4468 48.275 121.2851-12.392 153.5101-3.087 1.639-6.161 3.295-10.351 5.534 11.529 5.293 22.871 8.841 32.379 15.155 36.49 24.241 51.351 78.479 35.016 126.118-14.255 41.563-48.1 58.726-87.459 67.856-12.926 2.999-26.464 4.556-39.741 4.649-64.648.467-129.2997.209-194.921139.209.006521-131.726.006521-263.469.006521-395.628737zm69.142818 337.647737c48.0818 0 94.7768 1.095 141.3858-.396 29.299-.937 50.47-32.342 48.708-62.889-1.737-30.11-20.279-55.716-48.939-57.055-46.206-2.158-92.538-1.548-138.8203-2.03-.6912-.004-1.3933 1.013-2.3367 1.745zm.1609-173.915c42.9759 0 84.4219 1.565 125.6829-.519 30.386-1.537 47.536-25.832 46.399-59.044-1.006-29.4058-18.37-47.0909-49.629-47.9169-39.194-1.0281-78.431-.5521-117.6534-.6434-1.5955-.0043-3.1932.8565-4.7995 1.3129zm2143.0669-54.351h57.65v30.897c6.42-4.949 14.24-10.447 21.45-16.639 44.17-37.9095 148.94-33.2578 184.8 43.084 30.85 65.702 29.51 131.776-12.14 192.943-23.07 33.879-58.79 45.987-99.25 43.809-35.16-1.898-66.11-12.949-90.47-45.498v144.066h-62.03c-.01-131.004-.01-261.46-.01-392.662zm58.57 144.672c2.59 14.388 4.02 29.121 8.04 43.105 8.96 31.205 36.25 54.281 64.52 56.274 37.81 2.667 64.96-11.303 78.63-44.826 17.37-42.602 16.76-85.567-8.63-125.382-29.95-46.967-101.7-43.041-127.08 6.16-10.44 20.254-15.56 41.572-15.48 64.669zm-99.41 100.592c0 11.775.42 23.732-.3 35.629-.17 2.937-3.86 7.897-6.24 8.101-17.98 1.498-36.26 4.119-54.01 2.267-15.65-1.634-24.27-14.898-29.09-30.236-37.15 30.243-79.75 36.784-125.07 31.169-37.89-4.693-69.28-35.809-71.98-70.358-3.73-47.617 14.56-78.622 57.32-89.91 29.99-7.912 61.22-11.093 91.88-16.438 7.44-1.295 14.97-2.352 22.24-4.338 13.95-3.809 24.02-11.534 25.04-27.419 1.05-16.42-5.31-29.215-20.75-35.429-26.33-10.597-53.15-10.334-79.08 1.8-11.83 5.534-18.86 16.672-25.06 35.589h-60.76c.05-23.164 8.11-42.634 23.5-59.026 20.33-21.654 46.82-30.156 75.35-33.14 29.87-3.124 59.56-2.984 88.58 6.799 39.02 13.158 57.7 38.901 57.65 80.114-.06 43.747-.02 87.495-.03 131.249-.01 31.049-.01 31.049 30.81 33.577zm-93.91-98.72c-19.15 3.317-36.67 5.86-53.97 9.477-18.18 3.804-36.72 7.099-54.06 13.451-17 6.23-22.78 22.119-22.22 39.183.54 16.313 11.68 25.454 26.04 30.473 24.63 8.605 49.33 7.545 72.82-3.443 16.82-7.871 29.63-20.74 31.14-40.401 1.24-16.376.25-32.924.25-48.74zm-1563.55-154.81c95.297-1.12 151.18 68.734 145.285 163.848-2.046 33.06-10.929 63.956-32.69 90.084-23.45 28.152-53.623 42.976-89.795 46.997-30.206 3.368-59.557 1.39-87.545-11.314-41.681-18.921-65.457-51.942-75.458-95.94-6.858-30.155-6.558-60.185 1.13-90.014 16.962-65.802 67.633-103.405 139.073-103.661zm-82.954 151.784c2.501 13.962 3.808 28.271 7.736 41.82 9.996 34.494 37.222 57.27 68.349 58.778 38.477 1.865 65.398-14.32 79.696-50.16 13.962-34.987 13.984-70.794-1.324-105.36-22.678-51.21-84.463-64.305-124.248-26.241-22.686 21.702-28.542 50.54-30.209 81.163zm413.583-151.78c85.952-.135 144.435 57.786 145.522 143.935.46 36.377-5.465 71.065-26.819 101.538-30.567 43.625-74.719 58.889-125.55 56.574-18.729-.854-38.144-5.015-55.599-11.866-40.983-16.087-65.419-47.762-76.279-90.158-9.532-37.229-8.471-74.223 3.654-110.61 18.596-55.816 69.608-89.315 135.071-89.413zm82.385 144.044c-1.387-7.641-2.754-22.404-6.874-36.359-10.47-35.492-38.143-57.04-73.009-58.555-32.836-1.43-62.37 17.931-75.106 51.838-15 39.937-13.896 79.718 8.706 116.929 23.545 38.766 76.92 47.26 111.925 18.337 26.708-22.069 33.243-52.54 34.358-92.19zm531.426-56.203c-19.61 0-38.72.161-57.8-.204-2.36-.044-6.02-2.4-6.77-4.511-10.74-29.814-35.99-33.359-62.11-33.509-10.83-.065-22.35 2.571-32.38 6.777-21.43 8.991-23.81 33.238-3.73 44.852 13.93 8.058 30.29 12.386 46.01 16.812 22.24 6.262 45.19 10.033 67.29 16.709 56.49 17.074 78.56 73.712 46.93 120.402-15.17 22.392-37.86 34.512-63.87 40.792-38.45 9.279-76.74 9.96-114.31-3.611-40.21-14.526-61.45-43.68-64.58-87.808h61.35c17.44 45.532 66.73 63.265 112.91 39.998 10.68-5.386 17.81-13.044 18.53-25.634.76-13.455-4.44-25.026-16.52-29.53-21.52-8.029-44.01-13.535-66.11-20.015-18.31-5.369-37.2-9.247-54.86-16.238-34.08-13.496-48.89-36.715-48.68-72.114.18-30.875 18.23-57.329 50.23-68.932 44.05-15.9699 89-17.9566 133.24-.626 29.91 11.716 47.73 34.823 55.14 65.932.67 2.872.09 6.054.09 10.458zm-333.09-80.376h56.79v46.432h-55.64c-.4 5.56-.9 9.451-.91 13.34-.06 46.867-.08 93.731.02 140.589.01 6.237.49 12.49 1.11 18.703 1.22 12.392 8.1 19.752 20.58 20.43 11.43.629 22.93.135 35.03.135v46.428c-25.93 6.419-52.29 6.08-77.8.396-29.72-6.617-41.79-27.061-42.05-65.757-.36-52.664-.1-105.337-.12-158.005v-15.483h-47.16v-46.963h46.53v-85.9951h63.63c-.01 28.1297-.01 56.0528-.01 85.7501zm531.06 287.846c-24.44 0-47.57.761-70.62-.217-22.34-.948-39.55-15.766-44.43-37.881-2.78-12.612-4.26-25.478-4.4-38.392-.49-49.549-.2-99.111-.2-148.667v-15.67h-47.01v-46.341h46.31v-86.3456h63.75v84.9456h56.51v46.678h-54.22c-.65 4.206-1.5 7.114-1.5 10.029-.04 50.449-.2 100.898.12 151.343.18 26.68 7.16 33.101 33.61 32.912 7.06-.046 14.13-.004 22.08-.004zm106.04-286.888v48.854c24.49-41.568 58.37-63.2283 108.41-55.844v60.269c-23.77-3.573-46.7-4.21-67 10.382-26.64 19.148-35.94 47.128-36.61 77.97-1.02 47.68-.26 95.403-.26 144.15h-62.45v-285.785c18.92.004 37.44.004 57.91.004z" fill="#fff"/></svg>