<svg fill="none" height="2932" viewBox="0 0 9773 2932" width="9773" xmlns="http://www.w3.org/2000/svg" xmlns:xlink="http://www.w3.org/1999/xlink"><clipPath id="a"><path d="m0 0h9772.44v2931.02h-9772.44z"/></clipPath><g clip-path="url(#a)"><path d="m1465.5 0c-809.356 0-1465.5 656.126-1465.5 1465.48 0 809.44 656.144 1465.54 1465.5 1465.54 809.39 0 1465.5-656.09 1465.5-1465.54 0-809.302-656.07-1465.4100537-1465.52-1465.4100537zm672.07 2113.65c-26.32 43.17-82.57 56.7-125.6 30.39-344.14-210.33-777.3-257.84-1287.42-141.31-49.157 11.27-98.157-19.55-109.356-68.69-11.253-49.15 19.424-98.15 68.704-109.35 558.252-127.63 1037.102-72.7 1423.382 163.34 43.05 26.43 56.7 82.6 30.27 125.65zm179.37-398.98c-33.14 53.77-103.46 70.64-157.16 37.62-393.84-242.09-994.39-312.22-1460.324-170.78-60.428 18.25-124.25-15.8-142.59-76.13-18.2-60.42 15.873-124.13 76.195-142.5 532.229-161.49 1193.869-83.26 1646.239 194.72 53.73 33.08 70.7 103.43 37.63 157.08zm15.4-415.52c-472.39-280.55-1251.6-306.342-1702.553-169.47-72.414 21.96-148.994-18.92-170.939-91.34-21.945-72.447 18.9-148.975 91.367-170.99 517.665-157.149 1378.225-126.787 1922.025 196.04 65.13 38.65 86.5 122.77 47.89 187.82-38.5 65.14-122.85 86.61-187.77 47.94zm1654.8 53.76c-253.03-60.34-298.08-102.69-298.08-191.68 0-84.07 79.15-140.65 196.86-140.65 114.1 0 227.24 42.96 345.85 131.41 3.59 2.68 8.09 3.74 12.51 3.04 4.43-.66 8.35-3.09 10.94-6.75l123.55-174.162c5.08-7.175 3.69-17.062-3.15-22.54-141.17-113.277-300.14-168.35-485.95-168.35-273.21 0-464.05 163.957-464.05 398.542 0 251.56 164.62 340.64 449.1 409.4 242.13 55.77 282.99 102.49 282.99 186.02 0 92.56-82.63 150.1-215.61 150.1-147.7 0-268.17-49.75-402.94-166.46-3.34-2.89-7.93-4.2-12.16-3.95-4.46.36-8.54 2.43-11.38 5.84l-138.53 164.87c-5.81 6.84-5.07 17.06 1.65 22.97 156.8 139.99 349.65 213.92 557.76 213.92 294.4 0 484.64-160.85 484.64-409.83.53-210.17-125.3-326.55-433.47-401.52zm1100.05-249.56c-127.61 0-232.28 50.27-318.59 153.25v-115.92c0-9.15-7.42-16.61-16.55-16.61h-226.58c-9.15 0-16.55 7.46-16.55 16.61v1288.04c0 9.15 7.4 16.6 16.55 16.6h226.58c9.13 0 16.55-7.45 16.55-16.6v-406.58c86.33 96.88 191.01 144.22 318.59 144.22 237.11 0 477.14-182.53 477.14-531.44.35-349.01-239.75-531.58-476.88-531.58zm213.67 531.57c0 177.67-109.44 301.66-266.15 301.66-154.93 0-271.8-129.62-271.8-301.66 0-172.03 116.87-301.67 271.8-301.67 154.17-.02 266.17 126.82 266.17 301.65zm878.68-531.57c-305.36 0-544.58 235.13-544.58 535.36 0 296.96 237.58 529.62 540.83 529.62 306.44 0 546.4-234.34 546.4-533.41 0-298.05-238.35-531.53-542.67-531.53zm0 835c-162.42 0-284.87-130.5-284.87-303.52 0-173.76 118.22-299.85 281.12-299.85 163.47 0 286.74 130.5 286.74 303.65 0 173.72-119 299.72-282.98 299.72zm1194.72-814.27h-249.32v-254.909c0-9.135-7.39-16.59-16.54-16.59h-226.54c-9.17 0-16.6 7.455-16.6 16.59v254.909h-108.94c-9.12 0-16.5 7.45-16.5 16.6v194.73c0 9.13 7.38 16.6 16.5 16.6h108.94v503.84c0 203.62 101.34 306.85 301.21 306.85 81.27 0 148.69-16.78 212.24-52.82 5.16-2.88 8.36-8.45 8.36-14.36v-185.43c0-5.73-2.98-11.13-7.88-14.12-4.93-3.1-11.07-3.26-16.13-.76-43.65 21.96-85.84 32.1-133 32.1-72.69 0-105.12-33.01-105.12-106.98v-468.23h249.32c9.15 0 16.52-7.45 16.52-16.61v-194.7c.35-9.15-7-16.61-16.27-16.61zm868.7.99v-31.31c0-92.1 35.31-133.17 114.52-133.17 47.23 0 85.17 9.38 127.66 23.555 5.24 1.646 10.69.823 14.95-2.31 4.37-3.133 6.84-8.155 6.84-13.475v-190.925c0-7.298-4.69-13.755-11.73-15.908-44.88-13.353-102.32-27.055-188.31-27.055-209.27 0-319.89 117.845-319.89 340.668v47.95h-108.85c-9.13 0-16.62 7.46-16.62 16.59v195.72c0 9.14 7.49 16.61 16.62 16.61h108.85v777.16c0 9.15 7.39 16.6 16.53 16.6h226.57c9.15 0 16.61-7.45 16.61-16.6v-777.11h211.54l324.04 776.97c-36.78 81.64-72.96 97.88-122.34 97.88-39.92 0-81.95-11.92-124.93-35.44-4.05-2.22-8.84-2.59-13.2-1.24-4.32 1.52-7.96 4.74-9.8 8.94l-76.79 168.47c-3.66 7.96-.52 17.31 7.14 21.44 80.17 43.41 152.53 61.95 241.98 61.95 167.29 0 259.76-77.93 341.28-287.58l393.07-1015.7c1.97-5.11 1.38-10.88-1.75-15.42-3.12-4.49-8.14-7.21-13.64-7.21h-235.86c-7.07 0-13.39 4.5-15.7 11.13l-241.62 690.17-264.65-690.62c-2.42-6.42-8.61-10.68-15.47-10.68h-387.1zm-503.65-.99h-226.57c-9.16 0-16.61 7.45-16.61 16.6v988.49c0 9.15 7.45 16.6 16.61 16.6h226.57c9.13 0 16.61-7.45 16.61-16.6v-988.42c0-2.18-.43-4.35-1.26-6.36-.83-2.02-2.06-3.86-3.6-5.4-1.55-1.54-3.38-2.76-5.4-3.6-2.02-.83-4.19-1.25-6.37-1.24zm-112-450.086c-89.76 0-162.59 72.659-162.59 162.417 0 89.81 72.85 162.558 162.59 162.558 89.72 0 162.49-72.748 162.49-162.558 0-89.74-72.8-162.417-162.4-162.417zm1984.85 767.896c-89.67 0-159.44-72.01-159.44-159.46s70.68-160.28 160.28-160.28c89.67 0 159.44 71.99 159.44 159.37 0 87.45-70.7 160.37-160.3 160.37zm.87-303.89c-81.67 0-143.46 64.93-143.46 144.43 0 79.47 61.35 143.52 142.64 143.52 81.65 0 143.52-64.87 143.52-144.43 0-79.47-61.43-143.52-142.63-143.52zm35.35 159.92 45.1 63.14h-38.02l-40.61-57.92h-34.91v57.92h-31.83v-167.37h74.64c38.88 0 64.45 19.9 64.45 53.39.18 27.44-15.75 44.21-38.67 50.84zm-26.95-75.51h-41.51v52.94h41.51c20.72 0 33.09-10.14 33.09-26.5 0-17.22-12.42-26.44-33.07-26.44z" fill="#fff"/></g></svg>