<svg fill="none" height="326" viewBox="0 0 2500 326" width="2500" xmlns="http://www.w3.org/2000/svg"><g fill="#fff"><path d="m2135.81 129.363v196.447h62.79v-130.965h229.64v130.965h62.79v-196.447zm55.61-63.689h242.2c34.09-6.2791 58.31-36.7779 65.48-65.482594h-373.16c7.18 28.704694 32.29 58.306394 65.48 65.482594zm-246.68 260.136c31.4-13.455 48.44-36.778 55.62-63.688h-282.56v-261.03357h-63.69v324.72157zm-761.57-261.033h224.26c34.08-9.8673 61.89-35.8809 69.07-63.68857h-355.22v191.96257h290.63v67.277h-227.84c-35.88 9.867-66.38 34.087-81.63 65.482h372.26v-196.447h-290.63zm-552.564.897h242.196c34.087-6.2791 59.204-36.7779 65.483-65.482594h-374.058c7.176 28.704694 32.292 58.306394 66.379 65.482594zm0 128.274h242.196c34.087-6.279 59.204-36.778 65.483-65.482h-374.058c7.176 28.704 32.292 58.306 66.379 65.482zm0 131.862h242.196c34.087-6.279 59.204-36.778 65.483-65.482h-374.058c7.176 28.704 32.292 59.203 66.379 65.482z"/><path d="m0 1.08843c7.17618 28.70467 32.2928 57.40937 65.4826 64.58557h102.2604l5.382 1.794v257.445h63.689v-257.445l5.382-1.794h102.26c34.087-8.9702 58.307-35.8809 65.483-64.58557v-.897024z"/></g></svg>