<svg enable-background="new 0 0 2469.7 2469.8" viewBox="0 0 2469.7 2469.8" xmlns="http://www.w3.org/2000/svg"><path d="m1449.8 2376-428.8-429.3 921.1-930.5 436.7 436.6z" fill="#8ab4f8"/><path d="m1452.9 527.1-436.6-436.7-925.8 925.8c-120.6 120.5-120.7 315.8-.2 436.4.1.1.2.2.2.2l925.8 925.8 428.3-430.3-699.6-713.2z" fill="#4285f4"/><path d="m2378.7 1016.2-925.8-925.8c-120.6-120.6-316.1-120.6-436.7 0s-120.6 316.1 0 436.6l926.3 925.8c120.6 120.6 316.1 120.6 436.6 0 120.6-120.6 120.6-316.1 0-436.6z" fill="#8ab4f8"/><circle cx="1231.2" cy="2163.9" fill="#246fdb" r="306"/></svg>