<svg height="326" viewBox="0 0 278.7 36.3" width="2500" xmlns="http://www.w3.org/2000/svg"><path d="m238.1 14.4v21.9h7v-14.6h25.6v14.6h7v-21.9zm6.2-7.1h27c3.8-.7 6.5-4.1 7.3-7.3h-41.6c.8 3.2 3.6 6.5 7.3 7.3m-27.5 29c3.5-1.5 5.4-4.1 6.2-7.1h-31.5v-29.1h-7.1v36.2zm-84.9-29.1h25c3.8-1.1 6.9-4 7.7-7.1h-39.6v21.4h32.4v7.5h-25.4c-4 1.1-7.4 3.8-9.1 7.3h41.5v-21.9h-32.4zm-61.6.1h27c3.8-.7 6.6-4.1 7.3-7.3h-41.7c.8 3.2 3.6 6.5 7.4 7.3m0 14.3h27c3.8-.7 6.6-4.1 7.3-7.3h-41.7c.8 3.2 3.6 6.5 7.4 7.3m0 14.7h27c3.8-.7 6.6-4.1 7.3-7.3h-41.7c.8 3.2 3.6 6.6 7.4 7.3"/><path d="m0 .1c.8 3.2 3.6 6.4 7.3 7.2h11.4l.6.2v28.7h7.1v-28.7l.6-.2h11.4c3.8-1 6.5-4 7.3-7.2v-.1z"/></svg>