<svg fill="none" height="288" viewBox="0 0 967 288" width="967" xmlns="http://www.w3.org/2000/svg"><path d="m657.171 17.1588h-93.356l.143 89.0112-132.132 82.331-27.178-15.882 132.132-83.1621-58.959-37.6112-132.976 83.1623-22.575-15.049 131.715-82.7465-59.375-37.1832031-150.151 93.9923031c-21.231-54.1582-75.884-76.8509-142.717-76.8509h-101.742v256.7513h124.923c59.138 0 104.811-30.597 121.784-80.357l149.996 94.408 167.207-104.988-.083 90.925h175.901v-82.414h-82.545v-174.3372zm-551.338 179.7942h-12.4764v-99.4247h12.4764c34.077 0 54.856 15.3217 54.856 51.4237.012 33.7-23.848 48.001-54.856 48.001zm747.876-179.7942h-93.357v256.7632h175.902v-82.414h-82.545z" fill="#fff"/></svg>