<?xml version="1.0" encoding="UTF-8"?>
<svg width="337px" height="80px" viewBox="0 0 337 80" version="1.1" xmlns="http://www.w3.org/2000/svg" xmlns:xlink="http://www.w3.org/1999/xlink">
    <!-- Generator: Sketch 61.2 (89653) - https://sketch.com -->
    <title>logo-dark</title>
    <desc>Created with Sketch.</desc>
    <g id="Page-1" stroke="none" stroke-width="1" fill="none" fill-rule="evenodd">
        <g id="logo-dark" fill-rule="nonzero">
            <path d="M32.175,40.29375 C31.2847333,40.7113598 30.357904,41.0461063 29.40625,41.29375 C28.3270833,41.5895833 27.1208333,41.8541667 25.7875,42.0875 C24.4066284,42.3259146 23.0075413,42.443028 21.60625,42.4375 C18.6873269,42.4699599 15.7826122,42.0266532 13.00625,41.125 C10.4693426,40.2976098 8.14709922,38.9187778 6.20625,37.0875 C4.26640228,35.2176495 2.74540556,32.9574569 1.74375,30.45625 C0.62682023,27.6134159 0.07895686,24.5789324 0.13125,21.525 C0.08010106,18.4731905 0.62793883,15.4409722 1.74375,12.6 C2.74609032,10.0883774 4.28386974,7.82543151 6.25,5.96875 C8.25766257,4.11989425 10.6320692,2.71441588 13.21875,1.84375 C16.1089603,0.86791801 19.1434695,0.38822887 22.19375,0.425 C24.5829703,0.41257372 26.9649002,0.68959112 29.2875,1.25 C31.2444285,1.70104093 33.1564244,2.3286107 35,3.125 C34.6337272,3.82780324 34.3766133,4.58228486 34.2375,5.3625 C34.04375,6.30625 33.88125,7.0875 33.76875,7.71875 L33.4125,7.8375 C32.9000017,7.2619787 32.3396645,6.73091281 31.7375,6.25 C30.9531089,5.61265928 30.1168706,5.04192662 29.2375,4.54375 C28.2318988,3.96454844 27.1649016,3.49917833 26.05625,3.15625 C24.7965921,2.77265184 23.4854359,2.58504268 22.16875,2.6 C19.9752224,2.59234031 17.7984364,2.98195959 15.74375,3.75 C13.7749281,4.48740712 12.0021303,5.66784667 10.5625,7.2 C9.00478469,8.89457684 7.83024572,10.9047225 7.11875,13.09375 C6.23523073,15.8234916 5.81277816,18.6813832 5.86875,21.55 C5.81266143,24.4186243 6.23511684,27.2765351 7.11875,30.00625 C7.83420026,32.1860669 9.00848308,34.1872494 10.5625,35.875 C12.0031437,37.4059545 13.7756433,38.5861955 15.74375,39.325 C17.8086757,40.0832344 19.9941311,40.4601831 22.19375,40.4375 C23.5166116,40.4484358 24.8342004,40.26953 26.10625,39.90625 C27.2394559,39.5831597 28.3433733,39.1650092 29.40625,38.65625 C30.3511646,38.200003 31.2582043,37.6691549 32.11875,37.06875 C32.925,36.5 33.6,36 34.15,35.56875 L34.3875,35.8 L33.85625,39.28125 C33.3417092,39.6896496 32.7766283,40.0299586 32.175,40.29375 L32.175,40.29375 Z" id="Path" fill="#283A2C"></path>
            <path d="M53.68125,17.85625 C53.1227102,17.6613726 52.5353104,17.562064 51.94375,17.5625 C51.059375,17.5414968 50.1854614,17.7572779 49.4125,18.1875 C48.6671792,18.6215288 48.0269282,19.214828 47.5375,19.925 C46.9963711,20.714571 46.596667,21.5922282 46.35625,22.51875 C46.0753313,23.566244 45.9365873,24.646765 45.94375,25.73125 L45.94375,32.2375 L45.94375,38.28125 C45.9467031,39.413278 46.0134757,40.5442392 46.14375,41.66875 C45.3625,41.59375 44.58125,41.55625 43.8,41.55625 C43.01875,41.55625 42.125,41.59375 41.34375,41.66875 C41.45625,40.3354167 41.5208333,38.51875 41.5375,36.21875 C41.5541667,33.91875 41.5541667,31.1 41.5375,27.7625 L41.5375,25.8875 C41.5375,24.3541667 41.5375,22.5875 41.5375,20.5875 C41.5375,18.5875 41.4729167,16.2958333 41.34375,13.7125 C41.775,13.79375 42.18125,13.85625 42.59375,13.91875 C43.0072637,13.9831647 43.4252542,14.014514 43.84375,14.0125 C44.2143794,14.0101214 44.5842559,13.978776 44.95,13.91875 C45.34375,13.8625 45.75,13.79375 46.2,13.7125 C46.05,15.125 45.9666667,16.24375 45.95,17.06875 C45.9333333,17.89375 45.9333333,18.6791667 45.95,19.425 L46.0625,19.4875 C48.3375,15.225 50.9,13.09375 53.75,13.09375 C54.0555719,13.0905639 54.360855,13.1135647 54.6625,13.1625 C54.9972175,13.2318291 55.3224432,13.3409371 55.63125,13.4875 C55.3972334,14.1714436 55.2789434,14.8896326 55.28125,15.6125 C55.2395833,16.5625 55.21875,17.4291667 55.21875,18.2125 L54.80625,18.50625 C54.4908391,18.1997961 54.1042753,17.9764482 53.68125,17.85625 L53.68125,17.85625 Z" id="Path" fill="#283A2C"></path>
            <path d="M62.01875,17.225 C64.3145833,14.4708333 67.6604167,13.09375 72.05625,13.09375 C73.8995283,13.0512176 75.7322902,13.3829007 77.44375,14.06875 C78.87729,14.6625283 80.1730124,15.5454918 81.25,16.6625 C82.274242,17.7510197 83.0485162,19.0500087 83.51875,20.46875 C84.0145042,21.9727913 84.2614999,23.5476528 84.25,25.13125 L84.25,26.28125 C84.25,26.65 84.2,27.0375 84.1625,27.43125 L77.86875,27.31875 C75.7854167,27.28125 73.6854167,27.2625 71.56875,27.2625 C70.275,27.2625 68.9875,27.2625 67.70625,27.31875 L63.85,27.43125 C63.8102761,27.7232369 63.7935579,28.0178938 63.8,28.3125 L63.8,29.08125 C63.7886917,30.5438696 64.016702,31.9984906 64.475,33.3875 C64.8872279,34.6605578 65.55742,35.8349896 66.44375,36.8375 C67.3299123,37.8174102 68.4114562,38.6008908 69.61875,39.1375 C70.9982841,39.7350362 72.4907365,40.0271304 73.99375,39.99375 C74.8085944,39.9902999 75.6195413,39.8810532 76.40625,39.66875 C77.2143874,39.4360996 77.9990416,39.1285152 78.75,38.75 C79.5278263,38.380665 80.2668972,37.9347101 80.95625,37.41875 C81.6140997,36.9330454 82.2175957,36.3777453 82.75625,35.7625 L83.05,35.9375 L82.69375,38.825 C81.3689048,39.852085 79.8931121,40.6679875 78.31875,41.24375 C76.5812393,41.9095016 74.7356843,42.2485244 72.875,42.24375 C70.8989614,42.2676363 68.9346169,41.9374233 67.075,41.26875 C63.6549611,40.0467711 60.9238257,37.4157773 59.575,34.04375 C58.8776301,32.3012431 58.5273219,30.4393018 58.54375,28.5625 C58.5645833,23.7541667 59.7229167,19.975 62.01875,17.225 L62.01875,17.225 Z M68.4875,15.975 C67.50131,16.6295625 66.6608563,17.4806548 66.01875,18.475 C65.363176,19.4955996 64.8678456,20.6106198 64.55,21.78125 C64.2311964,22.8893418 64.0218606,24.0260347 63.925,25.175 L67.71875,25.2875 C69.03125,25.325 70.3145833,25.34375 71.56875,25.34375 C72.8229167,25.34375 74.1354167,25.325 75.50625,25.2875 L79.3875,25.175 C79.3807923,24.04908 79.2909648,22.9251917 79.11875,21.8125 C78.9516131,20.659661 78.5947007,19.5424618 78.0625,18.50625 C77.5430501,17.4963779 76.7885358,16.6261142 75.8625,15.96875 C74.7607023,15.2671231 73.4667634,14.9283384 72.1625,15 C70.8654624,14.9543448 69.5847732,15.3006536 68.4875,15.99375 L68.4875,15.975 Z" id="Shape" fill="#283A2C"></path>
            <path d="M95.88125,13.79375 C97.367264,13.3243318 98.9166069,13.0861335 100.475,13.0875 C101.798931,13.0740197 103.115546,13.2853544 104.36875,13.7125 C105.485568,14.0890048 106.513078,14.6910451 107.3875,15.48125 C108.234418,16.2591688 108.911118,17.2039952 109.375,18.25625 C109.859096,19.3830292 110.101807,20.5987147 110.0875,21.825 C110.0875,24.0666667 110.05,26.3 109.975,28.525 C109.9,30.75 109.864583,33.1 109.86875,35.575 L109.86875,37.075 C109.881488,37.5592884 109.972236,38.0383542 110.1375,38.49375 C110.280387,38.8847414 110.511349,39.2375996 110.8125,39.525 C111.185156,39.826898 111.659332,39.9745186 112.1375,39.9375 L112.7625,39.9375 C112.98412,39.9186909 113.198214,39.8480401 113.3875,39.73125 L113.3875,40.98125 C112.868713,41.2006169 112.325121,41.3559289 111.76875,41.44375 C111.062781,41.5648139 110.347509,41.6233741 109.63125,41.61875 C108.555156,41.6909336 107.494332,41.3335798 106.68125,40.625 C105.991327,39.9647533 105.564859,39.0762774 105.48125,38.125 C104.270558,39.3914625 102.857497,40.447562 101.3,41.25 C99.7099083,41.9621107 97.9789286,42.3040326 96.2375,42.25 C95.2603176,42.25 94.2880951,42.1111111 93.35,41.8375 C92.4283071,41.5717372 91.5753195,41.1089914 90.85,40.48125 C90.1189047,39.8443768 89.5182359,39.0717852 89.08125,38.20625 C88.6164589,37.2623409 88.3849772,36.2206733 88.40625,35.16875 C88.40625,32.8104167 89.1416667,30.98125 90.6125,29.68125 C92.3600543,28.2618727 94.4718221,27.3630177 96.70625,27.0875 C98.825,26.73125 100.45625,26.43125 101.70625,26.16875 C102.616522,26.0042443 103.50543,25.7379911 104.35625,25.375 C104.817857,25.2054256 105.188821,24.8525574 105.38125,24.4 C105.514208,23.9306601 105.575317,23.4438906 105.5625,22.95625 C105.567822,22.0013904 105.450188,21.0498186 105.2125,20.125 C105.001301,19.2706175 104.620882,18.467274 104.09375,17.7625 C103.559872,17.0752612 102.875723,16.5193904 102.09375,16.1375 C101.154291,15.6970606 100.12466,15.4830001 99.0875,15.5125 C97.5645122,15.506042 96.0628809,15.8707239 94.7125,16.575 C93.4222605,17.2195724 92.3633273,18.2479385 91.68125,19.51875 L91.05625,19.51875 L91.05625,16.45625 C92.5059771,15.307578 94.1365228,14.4078209 95.88125,13.79375 Z M103.21875,27.6 C102.3375,27.75625 101.44375,27.925 100.54375,28.1 C99.6429667,28.2677807 98.7520491,28.4847723 97.875,28.75 C97.0395861,29.0018986 96.2472334,29.3791091 95.525,29.86875 C94.851446,30.3276883 94.2896799,30.9321743 93.88125,31.6375 C93.4355327,32.4700458 93.2197934,33.4063542 93.25625,34.35 C93.25625,36.2 93.7854167,37.5979167 94.84375,38.54375 C95.7910007,39.4633342 97.0548938,39.9845504 98.375,40.0002173 C99.8306645,40.0066098 101.253967,39.5706824 102.45625,38.75 C103.608374,38.007822 104.581708,37.0195462 105.30625,35.85625 L105.54375,27.00625 C104.78621,27.2671434 104.008624,27.4657204 103.21875,27.6 Z" id="Shape" fill="#283A2C"></path>
            <path d="M125.1875,5.78125 C125.066667,7.28125 124.977083,8.75208333 124.91875,10.19375 C124.860417,11.6354167 124.791667,13.09375 124.7125,14.56875 L127.125,14.56875 C128.3,14.56875 129.577083,14.5208333 130.95625,14.425 C130.906539,14.6294278 130.885504,14.8397765 130.89375,15.05 L130.89375,16.3 C130.885103,16.4978564 130.906171,16.6958911 130.95625,16.8875 C130.44375,16.85 129.9125,16.81875 129.3625,16.8 C128.8125,16.78125 128.225,16.8 127.6,16.8 L124.7125,16.8 C124.675,16.95625 124.63125,17.5875 124.575,18.675 C124.51875,19.7625 124.46875,21.08125 124.43125,22.5875 C124.39375,24.09375 124.375,25.625 124.375,27.25 L124.375,31.6625 C124.375,32.7583333 124.404167,33.8375 124.4625,34.9 C124.505455,35.8723403 124.692927,36.8328685 125.01875,37.75 C125.296952,38.5425018 125.785161,39.2445711 126.43125,39.78125 C127.220058,40.3419114 128.17807,40.6134217 129.14375,40.55 C129.562443,40.5401307 129.980023,40.5025484 130.39375,40.4375 C130.860026,40.3752672 131.321514,40.281299 131.775,40.15625 L131.775,41.56875 C131.10625,41.6875 130.36875,41.8375 129.5625,42.0125 C128.799285,42.183891 128.019716,42.2719068 127.2375,42.275 C124.7625,42.275 122.9375,41.6666667 121.7625,40.45 C120.5875,39.2333333 120,37.4479167 120,35.09375 C120,34.0375 120,32.8875 120.05625,31.65 C120.1125,30.4125 120.1375,29.05625 120.19375,27.58125 C120.25,26.10625 120.29375,24.45625 120.3375,22.69375 C120.38125,20.93125 120.39375,18.94375 120.39375,16.7125 L118.51875,16.7125 C118.20625,16.7125 117.89375,16.7125 117.51875,16.7125 C117.14375,16.7125 116.79375,16.7625 116.4,16.8 C116.4375,16.5625 116.46875,16.34375 116.4875,16.125 C116.50625,15.90625 116.4875,15.6875 116.4875,15.45625 C116.4875,15.225 116.4875,15.06875 116.4875,14.875 C116.468226,14.6778205 116.439023,14.4817382 116.4,14.2875 C118.1625,14.4 119.458333,14.45625 120.2875,14.45625 C120.24375,13.66875 120.21875,12.68125 120.2,11.49375 C120.18125,10.30625 120.13125,9.08125 120.0625,7.81875 L124.925,5.74375 L125.1875,5.78125 Z" id="Path" fill="#283A2C"></path>
            <path d="M137.84375,2.0125 C138.406074,1.44416467 139.172367,1.12436702 139.971875,1.12436702 C140.771383,1.12436702 141.537676,1.44416467 142.1,2.0125 C142.677082,2.56754543 142.998395,3.33688766 142.9875,4.1375 C142.998395,4.93811234 142.677082,5.70745457 142.1,6.2625 C141.537676,6.83083533 140.771383,7.15063298 139.971875,7.15063298 C139.172367,7.15063298 138.406074,6.83083533 137.84375,6.2625 C137.266668,5.70745457 136.945355,4.93811234 136.95625,4.1375 C136.945355,3.33688766 137.266668,2.56754543 137.84375,2.0125 Z" id="Path" fill="#283A2C"></path>
            <path d="M137.7,16.78125 C137.6375,14.8375 137.5,15.36875 137.2875,13.65625 C138.171565,13.8283012 139.068404,13.9265563 139.96875,13.95 C140.869118,13.9268745 141.765983,13.8286166 142.65,13.65625 C142.4375,15.34375 142.30625,14.8125 142.2375,16.78125 C142.16875,18.75 142.15,22.93125 142.15,24.69375 L142.15,22.94375 C142.15,24.7125 142.15,30.69375 142.2375,32.6375 C142.325,34.58125 142.4375,34.18125 142.65,35.7625 C141.7375,35.6875 140.9,35.4625 140.025,35.4625 C139.15,35.4625 138.2,35.6875 137.29375,35.7625 C137.50625,34.19375 137.64375,34.59375 137.70625,32.6375 C137.76875,30.68125 137.8,24.7125 137.8,22.94375 L137.8,24.7 C137.79375,22.93125 137.7625,18.75 137.7,16.78125 L137.7,16.78125 Z" id="Path" fill="#283A2C"></path>
            <path d="M154.29375,27.775 C152.464583,23.1416667 150.470833,18.4520833 148.3125,13.70625 C148.825,13.78125 149.3125,13.84375 149.7875,13.9 C150.277011,13.9582259 150.769538,13.9874436 151.2625,13.9875 C151.695189,13.9863537 152.127347,13.9571256 152.55625,13.9 C152.9875,13.84375 153.41875,13.78125 153.85,13.70625 C155.066667,17.5895833 156.39375,21.40625 157.83125,25.15625 C159.26875,28.90625 160.866667,32.7416667 162.625,36.6625 C163.40625,35.05625 164.1875,33.31875 164.95,31.45625 C165.7125,29.59375 166.48125,27.65625 167.24375,25.65625 C168.00625,23.65625 168.75625,21.64375 169.48125,19.61875 C170.20625,17.59375 170.925,15.625 171.63125,13.70625 C172.821637,14.0780956 174.097113,14.0780956 175.2875,13.70625 C173.166667,18.45625 171.083333,23.1458333 169.0375,27.775 C166.991667,32.4041667 165.116667,37.0333333 163.4125,41.6625 C162.807051,41.5875956 162.197565,41.5500246 161.5875,41.55 C160.96086,41.5515102 160.334825,41.5890722 159.7125,41.6625 C157.925,37.0375 156.11875,32.4083333 154.29375,27.775 L154.29375,27.775 Z" id="Path" fill="#283A2C"></path>
            <path d="M180.04375,17.225 C182.335417,14.4708333 185.68125,13.09375 190.08125,13.09375 C191.924583,13.0505223 193.757483,13.3822305 195.46875,14.06875 C196.90112,14.6641687 198.194879,15.549372 199.26875,16.66875 C200.293315,17.7570259 201.067634,19.0560903 201.5375,20.475 C202.035812,21.9785825 202.284932,23.553525 202.275,25.1375 L202.275,26.2875 C202.275,26.6583333 202.245833,27.0416667 202.1875,27.4375 L195.8875,27.325 C193.804167,27.2875 191.704167,27.26875 189.5875,27.26875 C188.29375,27.26875 187.00625,27.26875 185.725,27.325 L181.875,27.4375 C181.831682,27.7291646 181.812866,28.0239448 181.81875,28.31875 L181.81875,29.0875 C181.808225,30.5500615 182.036216,32.0045562 182.49375,33.39375 C182.908823,34.6668895 183.581056,35.8411689 184.46875,36.84375 C185.353157,37.8256143 186.435146,38.6094173 187.64375,39.14375 C189.023166,39.7416656 190.515703,40.0337763 192.01875,40 C196.69375,40 199.19375,37.5 203.00625,34.15 C206.81875,30.8 208.76875,27.7375 213.63125,26.65 C214.218393,26.7749069 214.755492,27.070638 215.175,27.5 C215.753741,28.1530891 216.146575,28.9495493 216.3125,29.80625 C216.3125,29.80625 212.19375,28.55625 206.6,33.09375 C201.525,37.2375 197.6625,42.2875 190.9,42.2875 C188.926015,42.3111785 186.963758,41.9809605 185.10625,41.3125 C183.414143,40.6966599 181.870359,39.7320611 180.575,38.48125 C179.297748,37.2455347 178.294775,35.7549161 177.63125,34.10625 C176.93419,32.3636531 176.583893,30.5017733 176.6,28.625 C176.6,23.775 177.747917,19.975 180.04375,17.225 L180.04375,17.225 Z M186.50625,15.975 C185.520289,16.6298407 184.679887,17.4808804 184.0375,18.475 C183.381926,19.4955996 182.886596,20.6106198 182.56875,21.78125 C182.249118,22.8891466 182.039767,24.0259219 181.94375,25.175 L185.73125,25.2875 C187.04375,25.325 188.327083,25.34375 189.58125,25.34375 C190.835417,25.34375 192.15,25.325 193.525,25.2875 L197.40625,25.175 C197.399984,24.0493017 197.312255,22.9255329 197.14375,21.8125 C196.973307,20.6596038 196.614347,19.5426035 196.08125,18.50625 C195.564065,17.4948477 194.809122,16.6240887 193.88125,15.96875 C192.781216,15.2683907 191.489664,14.9296586 190.1875,15 C188.890462,14.9543448 187.609773,15.3006536 186.5125,15.99375 L186.50625,15.975 Z" id="Shape" fill="#283A2C"></path>
            <path d="M137.6625,47.35 C137.6625,45.7791667 137.633333,44.2270833 137.575,42.69375 C137.5375,41.1625 137.49375,42.65625 137.4375,41.2625 C137.38125,39.86875 137.31875,38.68125 137.2375,37.69375 C138.977956,38.1411666 140.803294,38.1411666 142.54375,37.69375 C142.460417,38.6770833 142.3875,39.85625 142.325,41.23125 C142.2625,42.60625 142.20625,41.09375 142.16875,42.60625 C142.13125,44.11875 142.09375,45.6375 142.075,47.16875 C142.05625,48.7 142.075,50.1125 142.075,51.4125 L142.075,55.8875 L142.1875,55.8875 C143.186983,54.298348 144.535774,52.9581068 146.13125,51.96875 C147.792,51.0130486 149.684614,50.5350285 151.6,50.5875 C152.72459,50.5904644 153.843421,50.7481944 154.925,51.05625 C156.041422,51.3682038 157.076043,51.9207132 157.95625,52.675 C158.92375,53.5317536 159.679014,54.6015326 160.1625,55.8 C160.782756,57.4047801 161.073946,59.1179098 161.01875,60.8375 C161.01875,62.5291667 160.98125,64.2666667 160.90625,66.05 C160.83125,67.8333333 160.79375,69.7291667 160.79375,71.7375 L160.79375,75.56875 L160.79375,77.44375 C160.79375,78.06875 160.8375,78.63125 160.875,79.18125 C160.091667,79.10625 159.272917,79.06875 158.41875,79.06875 C157.564583,79.06875 156.764583,79.10625 156.01875,79.18125 C156.09375,77.1395833 156.177083,75.0395833 156.26875,72.88125 C156.360417,70.7229167 156.40625,68.5041667 156.40625,66.225 L156.40625,62.63125 C156.40625,59.6854167 155.835417,57.45625 154.69375,55.94375 C153.602926,54.4536325 151.84564,53.5995589 150,53.6625 C147.245833,53.6625 145.229167,54.50625 143.95,56.19375 C142.670833,57.88125 142.033333,60.2583333 142.0375,63.325 L142.0375,67.15 C142.0375,68.6 142.0875,70.0625 142.13125,71.525 C142.175,72.9875 142.225,74.41875 142.2875,75.79375 C142.35,77.16875 142.425,78.29375 142.50625,79.15 C141.602083,79.075 140.716667,79.0375 139.85,79.0375 C138.983333,79.0375 138.1,79.075 137.2,79.15 C137.275,78.24375 137.34375,77.10625 137.4,75.73125 C137.45625,74.35625 137.5,72.90625 137.5375,71.35625 C137.575,69.80625 137.6,68.275 137.625,66.7 C137.65,65.125 137.625,63.675 137.625,62.325 L137.625,51.7125 C137.670833,50.375 137.683333,48.9208333 137.6625,47.35 L137.6625,47.35 Z" id="Path" fill="#283A2C"></path>
            <path d="M168.425,58.4625 C169.177516,56.7172718 170.316582,55.1657488 171.75625,53.925 C173.110292,52.7748675 174.683736,51.9115997 176.38125,51.3875 C179.70506,50.3276695 183.27619,50.3276695 186.6,51.3875 C188.287327,51.9178345 189.851398,52.7806236 191.2,53.925 C192.63453,55.1690643 193.770902,56.7198277 194.525,58.4625 C195.419691,60.6191041 195.845772,62.9412467 195.775,65.275 C195.846154,67.6087822 195.420059,69.9310046 194.525,72.0875 C193.770343,73.8298523 192.634056,75.3804997 191.2,76.625 C189.861711,77.7644573 188.292351,78.6003117 186.6,79.075 C183.258769,80.0162148 179.722481,80.0162148 176.38125,79.075 C174.679081,78.6060969 173.100372,77.7698082 171.75625,76.625 C170.317064,75.3838054 169.178086,73.8324018 168.425,72.0875 C167.530859,69.9307333 167.1048,67.6087099 167.175,65.275 C167.105181,62.941319 167.531226,60.6193749 168.425,58.4625 L168.425,58.4625 Z M172.8,70.04375 C173.060486,71.4825718 173.567972,72.865471 174.3,74.13125 C174.985151,75.3067765 175.957082,76.2894591 177.125,76.9875 C179.857209,78.4008542 183.105291,78.4008542 185.8375,76.9875 C187.005418,76.2894591 187.977349,75.3067765 188.6625,74.13125 C189.394528,72.865471 189.902014,71.4825718 190.1625,70.04375 C190.750505,66.8896709 190.750505,63.6540791 190.1625,60.5 C189.901735,59.0592841 189.394288,57.6743775 188.6625,56.40625 C187.977349,55.2307235 187.005418,54.2480409 185.8375,53.55 C183.105291,52.1366458 179.857209,52.1366458 177.125,53.55 C175.956912,54.2478248 174.984933,55.2305565 174.3,56.40625 C173.568326,57.6744307 173.060887,59.059317 172.8,60.5 C172.214425,63.6543032 172.214425,66.8894468 172.8,70.04375 Z" id="Shape" fill="#283A2C"></path>
            <path d="M201.875,56.63125 C201.8125,54.6895833 201.685417,52.8729167 201.49375,51.18125 C202.362996,51.353785 203.245344,51.4520561 204.13125,51.475 C204.474711,51.4733846 204.817485,51.4441234 205.15625,51.3875 L206.475,51.18125 C206.366667,52.7520833 206.3125,54.3229167 206.3125,55.89375 L206.43125,55.89375 C208.514583,52.3604167 211.44375,50.59375 215.21875,50.59375 C216.198215,50.59375 217.171913,50.7436195 218.10625,51.0375 C219.013971,51.3142865 219.877023,51.7205526 220.66875,52.24375 C221.42879,52.7520507 222.096679,53.3861219 222.64375,54.11875 C223.175585,54.8067206 223.556754,55.5988712 223.7625,56.44375 L223.88125,56.44375 C224.729127,54.6629941 226.066741,53.1606176 227.7375,52.1125 C229.433777,51.0926378 231.38364,50.5726745 233.3625,50.6125 C234.578733,50.6012262 235.78923,50.780481 236.95,51.14375 C239.164117,51.8136495 240.926155,53.4990773 241.69375,55.68125 C242.174135,57.0432215 242.402855,58.4811951 242.36875,59.925 C242.36875,60.59375 242.36875,61.31875 242.3125,62.10625 C242.25625,62.89375 242.23125,63.80625 242.2,64.85 C242.16875,65.89375 242.125,67.06875 242.0875,68.38125 C242.05,69.69375 242.0375,71.21875 242.0375,72.94375 L242.0375,76.00625 C242.0375,76.9875 242.1,78.05 242.175,79.1875 C241.745701,79.1127392 241.31076,79.0751001 240.875,79.075 L238.3375,79.075 C237.903833,79.0755805 237.471008,79.1132174 237.04375,79.1875 C237.164583,78.2041667 237.297917,76.2208333 237.44375,73.2375 C237.589583,70.2541667 237.660417,66.0875 237.65625,60.7375 C237.664107,59.8046249 237.554921,58.8744479 237.33125,57.96875 C237.145988,57.1607383 236.797149,56.3992489 236.30625,55.73125 C235.812369,55.0863715 235.168813,54.5715263 234.43125,54.23125 C233.500898,53.8307885 232.493553,53.6408442 231.48125,53.675 C230.230317,53.6363116 228.9905,53.9204362 227.88125,54.5 C227.000566,54.9762368 226.231419,55.634593 225.625,56.43125 C225.326998,56.8317046 225.077351,57.2659644 224.88125,57.725 C224.662295,58.3633508 224.525773,59.0270548 224.475,59.7 C224.375,60.58125 224.30625,61.81875 224.26875,63.40625 C224.23125,64.99375 224.20625,67.15625 224.20625,69.975 C224.20625,71.6625 224.233333,73.2041667 224.2875,74.6 C224.34375,75.99375 224.4125,77.5125 224.4875,79.1625 C223.59375,79.0875 222.7375,79.05 221.91875,79.05 C221.1,79.05 220.25,79.0875 219.35,79.1625 C219.5375,77.0041667 219.66875,74.80625 219.74375,72.56875 C219.81875,70.33125 219.85625,68.13125 219.85625,65.96875 C219.85625,64.125 219.85625,62.68125 219.85625,61.6375 C219.850818,60.8020897 219.800747,59.9675664 219.70625,59.1375 C219.649151,58.6277582 219.540255,58.125162 219.38125,57.6375 C219.224942,57.1943084 219.039109,56.76209 218.825,56.34375 C218.328914,55.5356514 217.625348,54.8752492 216.7875,54.43125 C215.920613,53.9174855 214.932676,53.6435377 213.925,53.6375 C211.333333,53.6375 209.427083,54.48125 208.20625,56.16875 C206.985417,57.85625 206.377083,60.2333333 206.38125,63.3 L206.38125,68.3 C206.38125,70.0666667 206.410417,71.9229167 206.46875,73.86875 C206.527083,75.8145833 206.654167,77.5729167 206.85,79.14375 C205.95,79.06875 205.06875,79.03125 204.20625,79.03125 C203.34375,79.03125 202.4625,79.06875 201.5625,79.14375 C201.758333,77.5770833 201.885417,75.81875 201.94375,73.86875 C202.002083,71.91875 202.033333,70.0625 202.0375,68.3 L202.0375,62.175 C202.004167,60.425 201.95,58.5770833 201.875,56.63125 L201.875,56.63125 Z" id="Path" fill="#283A2C"></path>
            <path d="M251.96875,54.71875 C254.264583,51.9645833 257.6125,50.5895833 262.0125,50.59375 C263.855819,50.5506963 265.688685,50.8823983 267.4,51.56875 C268.831853,52.1651206 270.125429,53.0501983 271.2,54.16875 C272.222154,55.2577471 272.994291,56.556729 273.4625,57.975 C273.96136,59.4784492 274.210494,61.0534826 274.2,62.6375 L274.2,63.7875 C274.2,64.15625 274.15,64.55 274.1125,64.9375 L267.8125,64.825 C265.729167,64.7875 263.629167,64.76875 261.5125,64.76875 C260.216667,64.76875 258.93125,64.7875 257.65625,64.825 L253.79375,64.9375 C253.750889,65.229213 253.732076,65.523955 253.7375,65.81875 L253.7375,66.58125 C253.725629,68.0439112 253.953653,69.4986233 254.4125,70.8875 C254.823404,72.1611419 255.493744,73.3358321 256.38125,74.3375 C257.267536,75.317272 258.349049,76.1007299 259.55625,76.6375 C260.935607,77.2356057 262.428186,77.5277246 263.93125,77.49375 C264.746158,77.491225 265.557225,77.3819622 266.34375,77.16875 C267.174488,76.9508746 267.982367,76.6536754 268.75625,76.28125 C269.533437,75.9107262 270.272394,75.4648401 270.9625,74.95 C271.619111,74.4650844 272.220617,73.9096873 272.75625,73.29375 L273.05,73.46875 L272.7,76.35625 C271.375155,77.383335 269.899362,78.1992375 268.325,78.775 C266.587102,79.4393704 264.741806,79.7783456 262.88125,79.775 C260.905211,79.7988863 258.940867,79.4686733 257.08125,78.8 C255.391371,78.1833793 253.849784,77.2188228 252.55625,75.96875 C251.278566,74.7333966 250.275527,73.2426801 249.6125,71.59375 C248.914199,69.8515145 248.563855,67.9893876 248.58125,66.1125 C248.54375,61.2666667 249.672917,57.46875 251.96875,54.71875 L251.96875,54.71875 Z M258.4375,53.46875 C257.453339,54.1237034 256.615006,54.9748032 255.975,55.96875 C255.318532,56.9896673 254.821177,58.1045014 254.5,59.275 C254.180921,60.3830271 253.971581,61.5197473 253.875,62.66875 L257.66875,62.78125 C258.98125,62.81875 260.2625,62.8375 261.51875,62.8375 C262.775,62.8375 264.125,62.8375 265.45625,62.78125 L269.3375,62.66875 C269.332093,61.5407008 269.242259,60.4146385 269.06875,59.3 C268.901276,58.1472387 268.544381,57.0300938 268.0125,55.99375 C267.492098,54.9826303 266.735232,54.1121264 265.80625,53.45625 C264.704773,52.7602758 263.413325,52.4259416 262.1125,52.5 C260.815462,52.4543448 259.534773,52.8006536 258.4375,53.49375 L258.4375,53.46875 Z" id="Shape" fill="#283A2C"></path>
            <path d="M280.98125,75 C281.419668,75.4952764 281.912341,75.9397304 282.45,76.325 C283.04982,76.7526144 283.703359,77.0993473 284.39375,77.35625 C285.833182,77.8848796 287.410218,77.9047304 288.8625,77.4125 C289.525601,77.1906681 290.14367,76.8520003 290.6875,76.4125 C291.224434,75.9649174 291.651984,75.4005512 291.9375,74.7625 C292.265638,74.0409359 292.427947,73.2550218 292.4125,72.4625 C292.480169,71.4253302 292.105486,70.4080085 291.38125,69.6625 C290.634098,68.9758971 289.764943,68.4353254 288.81875,68.06875 C287.724893,67.6335006 286.603753,67.270226 285.4625,66.98125 C284.2913,66.6861413 283.163191,66.2407798 282.10625,65.65625 C281.096562,65.096334 280.221871,64.3219127 279.54375,63.3875 C278.796372,62.2315229 278.435279,60.8681201 278.5125,59.49375 C278.490897,58.2751598 278.703058,57.0637225 279.1375,55.925 C279.55244,54.866941 280.192179,53.9115986 281.0125,53.125 C281.892751,52.2981534 282.932813,51.6600783 284.06875,51.25 C285.408428,50.7748733 286.822527,50.5441296 288.24375,50.56875 C289.494585,50.5349579 290.74079,50.7341812 291.91875,51.15625 C292.91875,51.55 293.875,51.9 294.775,52.2125 C294.417648,52.9100766 294.122747,53.6379172 293.89375,54.3875 C293.673803,55.0441584 293.496352,55.7142939 293.3625,56.39375 L292.65625,56.39375 C292.300538,55.3955251 291.670081,54.5180855 290.8375,53.8625 C289.890799,53.100515 288.702097,52.7035418 287.4875,52.74375 C286.887916,52.7449422 286.292561,52.844168 285.725,53.0375 C285.146565,53.230743 284.610009,53.5318934 284.14375,53.925 C283.649161,54.3474893 283.248849,54.8691727 282.96875,55.45625 C282.640858,56.1577769 282.480392,56.9258757 282.5,57.7 C282.431366,58.7717084 282.801354,59.8252726 283.525,60.61875 C284.255103,61.3349507 285.12836,61.8887231 286.0875,62.24375 C287.182952,62.6591935 288.304022,63.0036564 289.44375,63.275 C290.608743,63.5550316 291.735652,63.9747371 292.8,64.525 C293.815337,65.0495627 294.691488,65.8078938 295.35625,66.7375 C296.121942,67.8849022 296.500796,69.2470271 296.4375,70.625 C296.434887,71.7849997 296.185625,72.9311827 295.70625,73.9875 C295.199484,75.1071108 294.479885,76.1175214 293.5875,76.9625 C292.62787,77.8680511 291.494634,78.5696791 290.25625,79.025 C288.842686,79.5378138 287.347247,79.7877596 285.84375,79.7625 C284.315982,79.7969074 282.790879,79.6181022 281.3125,79.23125 C280.246159,78.936182 279.218255,78.5166291 278.25,77.98125 C278.545162,77.3017008 278.791617,76.6020189 278.9875,75.8875 C279.213199,75.1725692 279.341438,74.4304629 279.36875,73.68125 L280.06875,73.68125 C280.315381,74.1579803 280.622041,74.6011676 280.98125,75 L280.98125,75 Z" id="Path" fill="#283A2C"></path>
            <path d="M328.675,36.1375 C329.570858,36.7410856 330.508658,37.2799549 331.48125,37.75 C332.53125,38.2125 333.45,38.51875 334.25625,38.30625 C335.157532,38.0654885 335.969551,37.5682895 336.59375,36.875 C335.6375,38.525 333.84375,39.90625 330.79375,38.35625 C327.3125,36.5875 324.075,34.43125 319,32.675 C313.769154,30.8417571 308.289731,29.815419 302.75,29.63125 C284.86875,29.1375 270.375,40.9875 255.91875,43.1375 C236.54375,46.01875 224.35,34.65625 217.53125,28.8 C233.96875,23.4625 243.21875,19.79375 254.35625,18.3375 C264.00625,17.0875 268.49375,17.2875 276.78125,17.9125 C285.06875,18.5375 293.25,20.4125 302.34375,23.475 C306.8625,25.04375 311.35625,27.3625 316.28125,29.825 C319.903173,31.5288826 323.410561,33.4662968 326.78125,35.625 C318.275,30.3125 314.90625,28.025 306.30625,24.375 C297.907386,20.6641072 289.0661,18.0489015 280,16.59375 C270.88125,15.11875 265.35,14.9375 254.6,16.09375 C243.85,17.25 231.94375,20.4375 215.65,26.0375 C221.2375,18 226.9,13.48125 233.24375,10.4125 C239.268702,7.6047978 245.761504,5.93709715 252.39375,5.49375 C265.00625,4.64375 272.76875,7.09375 283.80625,11.11875 C294.74375,15.1625 304.95625,20.68125 314.375,26.5625 C319.50625,29.74375 324.86875,33.75 328.675,36.1375 L328.675,36.1375 Z" id="Path" fill="#B5D8B2"></path>
        </g>
    </g>
</svg>