<svg height="80" viewBox="0 0 337 80" width="337" xmlns="http://www.w3.org/2000/svg"><g fill="#283A2C"><path d="m32.175 40.29375c-.8902667.4176098-1.817096.7523563-2.76875 1-1.0791667.2958333-2.2854167.5604167-3.61875.79375-1.3808716.2384146-2.7799587.355528-4.18125.35-2.9189231.0324599-5.8236378-.4108468-8.6-1.3125-2.5369074-.8273902-4.85915078-2.2062222-6.8-4.0375-1.93984772-1.8698505-3.46084444-4.1300431-4.4625-6.63125-1.11692977-2.8428341-1.66479314-5.8773176-1.6125-8.93125-.05114894-3.0518095.49668883-6.0840278 1.6125-8.925 1.00234032-2.5116226 2.54011974-4.77456849 4.50625-6.63125 2.00766257-1.84885575 4.3820692-3.25433412 6.96875-4.125 2.8902103-.97583199 5.9247195-1.45552113 8.975-1.41875 2.3892203-.01242628 4.7711502.26459112 7.09375.825 1.9569285.45104093 3.8689244 1.0786107 5.7125 1.875-.3662728.70280324-.6233867 1.45728486-.7625 2.2375-.19375.94375-.35625 1.725-.46875 2.35625l-.35625.11875c-.5124983-.5755213-1.0728355-1.10658719-1.675-1.5875-.7843911-.63734072-1.6206294-1.20807338-2.5-1.70625-1.0056012-.57920156-2.0725984-1.04457167-3.18125-1.3875-1.2596579-.38359816-2.5708141-.57120732-3.8875-.55625-2.1935276-.00765969-4.3703136.38195959-6.425 1.15-1.9688219.73740712-3.7416197 1.91784667-5.18125 3.45-1.55771531 1.69457684-2.73225428 3.7047225-3.44375 5.89375-.88351927 2.7297416-1.30597184 5.5876332-1.25 8.45625-.05608857 2.8686243.36636684 5.7265351 1.25 8.45625.71545026 2.1798169 1.88973308 4.1809994 3.44375 5.86875 1.4406437 1.5309545 3.2131433 2.7111955 5.18125 3.45 2.0649257.7582344 4.2503811 1.1351831 6.45 1.1125 1.3228616.0109358 2.6404504-.16797 3.9125-.53125 1.1332059-.3230903 2.2371233-.7412408 3.3-1.25.9449146-.456247 1.8519543-.9870951 2.7125-1.5875.80625-.56875 1.48125-1.06875 2.03125-1.5l.2375.23125-.53125 3.48125c-.5145408.4083996-1.0796217.7487086-1.68125 1.0125z"/><path d="m53.68125 17.85625c-.5585398-.1948774-1.1459396-.294186-1.7375-.29375-.884375-.0210032-1.7582886.1947779-2.53125.625-.7453208.4340288-1.3855718 1.027328-1.875 1.7375-.5411289.789571-.940833 1.6672282-1.18125 2.59375-.2809187 1.047494-.4196627 2.128015-.4125 3.2125v6.50625 6.04375c.0029531 1.132028.0697257 2.2629892.2 3.3875-.78125-.075-1.5625-.1125-2.34375-.1125s-1.675.0375-2.45625.1125c.1125-1.3333333.1770833-3.15.19375-5.45s.0166667-5.11875 0-8.45625v-1.875c0-1.5333333 0-3.3 0-5.3s-.0645833-4.2916667-.19375-6.875c.43125.08125.8375.14375 1.25.20625.4135137.0644147.8315042.095764 1.25.09375.3706294-.0023786.7405059-.033724 1.10625-.09375.39375-.05625.8-.125 1.25-.20625-.15 1.4125-.2333333 2.53125-.25 3.35625s-.0166667 1.6104167 0 2.35625l.1125.0625c2.275-4.2625 4.8375-6.39375 7.6875-6.39375.3055719-.0031861.610855.0198147.9125.06875.3347175.0693291.6599432.1784371.96875.325-.2340166.6839436-.3523066 1.4021326-.35 2.125-.0416667.95-.0625 1.8166667-.0625 2.6l-.4125.29375c-.3154109-.3064539-.7019747-.5298018-1.125-.65z"/><path d="m62.01875 17.225c2.2958333-2.7541667 5.6416667-4.13125 10.0375-4.13125 1.8432783-.0425324 3.6760402.2891507 5.3875.975 1.43354.5937783 2.7292624 1.4767418 3.80625 2.59375 1.024242 1.0885197 1.7985162 2.3875087 2.26875 3.80625.4957542 1.5040413.7427499 3.0789028.73125 4.6625v1.15c0 .36875-.05.75625-.0875 1.15l-6.29375-.1125c-2.0833333-.0375-4.1833333-.05625-6.3-.05625-1.29375 0-2.58125 0-3.8625.05625l-3.85625.1125c-.0397239.2919869-.0564421.5866438-.05.88125v.76875c-.0113083 1.4626196.216702 2.9172406.675 4.30625.4122279 1.2730578 1.08242 2.4474896 1.96875 3.45.8861623.9799102 1.9677062 1.7633908 3.175 2.3 1.3795341.5975362 2.8719865.8896304 4.375.85625.8148444-.0034501 1.6257913-.1126968 2.4125-.325.8081374-.2326504 1.5927916-.5402348 2.34375-.91875.7778263-.369335 1.5168972-.8152899 2.20625-1.33125.6578497-.4857046 1.2613457-1.0410047 1.8-1.65625l.29375.175-.35625 2.8875c-1.3248452 1.027085-2.8006379 1.8429875-4.375 2.41875-1.7375107.6657516-3.5830657 1.0047744-5.44375 1-1.9760386.0238863-3.9403831-.3063267-5.8-.975-3.4200389-1.2219789-6.1511743-3.8529727-7.5-7.225-.6973699-1.7425069-1.0476781-3.6044482-1.03125-5.48125.0208333-4.8083333 1.1791667-8.5875 3.475-11.3375zm6.46875-1.25c-.98619.6545625-1.8266437 1.5056548-2.46875 2.5-.655574 1.0205996-1.1509044 2.1356198-1.46875 3.30625-.3188036 1.1080918-.5281394 2.2447847-.625 3.39375l3.79375.1125c1.3125.0375 2.5958333.05625 3.85.05625s2.5666667-.01875 3.9375-.05625l3.88125-.1125c-.0067077-1.12592-.0965352-2.2498083-.26875-3.3625-.1671369-1.152839-.5240493-2.2700382-1.05625-3.30625-.5194499-1.0098721-1.2739642-1.8801358-2.2-2.5375-1.1017977-.7016269-2.3957366-1.0404116-3.7-.96875-1.2970376-.0456552-2.5777268.3006536-3.675.99375z"/><path d="m95.88125 13.79375c1.486014-.4694182 3.0353569-.7076165 4.59375-.70625 1.323931-.0134803 2.640546.1978544 3.89375.625 1.116818.3765048 2.144328.9785451 3.01875 1.76875.846918.7779188 1.523618 1.7227452 1.9875 2.775.484096 1.1267792.726807 2.3424647.7125 3.56875 0 2.2416667-.0375 4.475-.1125 6.7s-.110417 4.575-.10625 7.05v1.5c.012738.4842884.103486.9633542.26875 1.41875.142887.3909914.373849.7438496.675 1.03125.372656.301898.846832.4495186 1.325.4125h.625c.22162-.0188091.435714-.0894599.625-.20625v1.25c-.518787.2193669-1.062379.3746789-1.61875.4625-.705969.1210639-1.421241.1796241-2.1375.175-1.076094.0721836-2.136918-.2851702-2.95-.99375-.689923-.6602467-1.116391-1.5487226-1.2-2.5-1.210692 1.2664625-2.623753 2.322562-4.18125 3.125-1.5900917.7121107-3.3210714 1.0540326-5.0625 1-.9771824 0-1.9494049-.1388889-2.8875-.4125-.9216929-.2657628-1.7746805-.7285086-2.5-1.35625-.7310953-.6368732-1.3317641-1.4094648-1.76875-2.275-.4647911-.9439091-.6962728-1.9855767-.675-3.0375 0-2.3583333.7354167-4.1875 2.20625-5.4875 1.7475543-1.4193773 3.8593221-2.3182323 6.09375-2.59375 2.11875-.35625 3.75-.65625 5-.91875.910272-.1645057 1.79918-.4307589 2.65-.79375.461607-.1695744.832571-.5224426 1.025-.975.132958-.4693399.194067-.9561094.18125-1.44375.005322-.9548596-.112312-1.9064314-.35-2.83125-.211199-.8543825-.591618-1.657726-1.11875-2.3625-.533878-.6872388-1.218027-1.2431096-2-1.625-.939459-.4404394-1.96909-.6544999-3.00625-.625-1.5229878-.006458-3.0246191.3582239-4.375 1.0625-1.2902395.6445724-2.3491727 1.6729385-3.03125 2.94375h-.625v-3.0625c1.4497271-1.148672 3.0802728-2.0484291 4.825-2.6625zm7.3375 13.80625c-.88125.15625-1.775.325-2.675.5-.9007833.1677807-1.7917009.3847723-2.66875.65-.8354139.2518986-1.6277666.6291091-2.35 1.11875-.673554.4589383-1.2353201 1.0634243-1.64375 1.76875-.4457173.8325458-.6614566 1.7688542-.625 2.7125 0 1.85.5291667 3.2479167 1.5875 4.19375.9472507.9195842 2.2111438 1.4408004 3.53125 1.4563965 1.4556645.0064633 2.878967-.4294641 4.08125-1.2501465 1.152124-.742178 2.125458-1.7304538 2.85-2.89375l.2375-8.85c-.75754.2608934-1.535126.4594704-2.325.59375z"/><path d="m125.1875 5.78125c-.120833 1.5-.210417 2.97083333-.26875 4.4125-.058333 1.4416667-.127083 2.9-.20625 4.375h2.4125c1.175 0 2.452083-.0479167 3.83125-.14375-.049711.2044278-.070746.4147765-.0625.625v1.25c-.008647.1978564.012421.3958911.0625.5875-.5125-.0375-1.04375-.06875-1.59375-.0875s-1.1375 0-1.7625 0h-2.8875c-.0375.15625-.08125.7875-.1375 1.875s-.10625 2.40625-.14375 3.9125-.05625 3.0375-.05625 4.6625v4.4125c0 1.0958333.029167 2.175.0875 3.2375.042955.9723403.230427 1.9328685.55625 2.85.278202.7925018.766411 1.4945711 1.4125 2.03125.788808.5606614 1.74682.8321717 2.7125.76875.418693-.0098693.836273-.0474516 1.25-.1125.466276-.0622328.927764-.156201 1.38125-.28125v1.4125c-.66875.11875-1.40625.26875-2.2125.44375-.763215.171391-1.542784.2594068-2.325.2625-2.475 0-4.3-.6083333-5.475-1.825s-1.7625-3.0020833-1.7625-5.35625c0-1.05625 0-2.20625.05625-3.44375s.08125-2.59375.1375-4.06875.1-3.125.14375-4.8875.05625-3.75.05625-5.98125h-1.875c-.3125 0-.625 0-1 0s-.725.05-1.11875.0875c.0375-.2375.06875-.45625.0875-.675s0-.4375 0-.66875 0-.3875 0-.58125c-.019274-.1971795-.048477-.3932618-.0875-.5875 1.7625.1125 3.058333.16875 3.8875.16875-.04375-.7875-.06875-1.775-.0875-2.9625s-.06875-2.4125-.1375-3.675l4.8625-2.075z"/><path d="m137.84375 2.0125c.562324-.56833533 1.328617-.88813298 2.128125-.88813298s1.565801.31979765 2.128125.88813298c.577082.55504543.898395 1.32438766.8875 2.125.010895.80061234-.310418 1.56995457-.8875 2.125-.562324.56833533-1.328617.88813298-2.128125.88813298s-1.565801-.31979765-2.128125-.88813298c-.577082-.55504543-.898395-1.32438766-.8875-2.125-.010895-.80061234.310418-1.56995457.8875-2.125z"/><path d="m137.7 16.78125c-.0625-1.94375-.2-1.4125-.4125-3.125.884065.1720512 1.780904.2703063 2.68125.29375.900368-.0231255 1.797233-.1213834 2.68125-.29375-.2125 1.6875-.34375 1.15625-.4125 3.125s-.0875 6.15-.0875 7.9125v-1.75c0 1.76875 0 7.75.0875 9.69375s.2 1.54375.4125 3.125c-.9125-.075-1.75-.3-2.625-.3s-1.825.225-2.73125.3c.2125-1.56875.35-1.16875.4125-3.125s.09375-7.925.09375-9.69375v1.75625c-.00625-1.76875-.0375-5.95-.1-7.91875z"/><path d="m154.29375 27.775c-1.829167-4.6333333-3.822917-9.3229167-5.98125-14.06875.5125.075 1 .1375 1.475.19375.489511.0582259.982038.0874436 1.475.0875.432689-.0011463.864847-.0303744 1.29375-.0875.43125-.05625.8625-.11875 1.29375-.19375 1.216667 3.8833333 2.54375 7.7 3.98125 11.45s3.035417 7.5854167 4.79375 11.50625c.78125-1.60625 1.5625-3.34375 2.325-5.20625s1.53125-3.8 2.29375-5.8 1.5125-4.0125 2.2375-6.0375 1.44375-3.99375 2.15-5.9125c1.190387.3718456 2.465863.3718456 3.65625 0-2.120833 4.75-4.204167 9.4395833-6.25 14.06875s-3.920833 9.2583333-5.625 13.8875c-.605449-.0749044-1.214935-.1124754-1.825-.1125-.62664.0015102-1.252675.0390722-1.875.1125-1.7875-4.625-3.59375-9.2541667-5.41875-13.8875z"/><path d="m180.04375 17.225c2.291667-2.7541667 5.6375-4.13125 10.0375-4.13125 1.843333-.0432277 3.676233.2884805 5.3875.975 1.43237.5954187 2.726129 1.480622 3.8 2.6 1.024565 1.0882759 1.798884 2.3873403 2.26875 3.80625.498312 1.5035825.747432 3.078525.7375 4.6625v1.15c0 .3708333-.029167.7541667-.0875 1.15l-6.3-.1125c-2.083333-.0375-4.183333-.05625-6.3-.05625-1.29375 0-2.58125 0-3.8625.05625l-3.85.1125c-.043318.2916646-.062134.5864448-.05625.88125v.76875c-.010525 1.4625615.217466 2.9170562.675 4.30625.415073 1.2731395 1.087306 2.4474189 1.975 3.45.884407.9818643 1.966396 1.7656673 3.175 2.3 1.379416.5979156 2.871953.8900263 4.375.85625 4.675 0 7.175-2.5 10.9875-5.85s5.7625-6.4125 10.625-7.5c.587143.1249069 1.124242.420638 1.54375.85.578741.6530891.971575 1.4495493 1.1375 2.30625 0 0-4.11875-1.25-9.7125 3.2875-5.075 4.14375-8.9375 9.19375-15.7 9.19375-1.973985.0236785-3.936242-.3065395-5.79375-.975-1.692107-.6158401-3.235891-1.5804389-4.53125-2.83125-1.277252-1.2357153-2.280225-2.7263339-2.94375-4.375-.69706-1.7425969-1.047357-3.6044767-1.03125-5.48125 0-4.85 1.147917-8.65 3.44375-11.4zm6.4625-1.25c-.985961.6548407-1.826363 1.5058804-2.46875 2.5-.655574 1.0205996-1.150904 2.1356198-1.46875 3.30625-.319632 1.1078966-.528983 2.2446719-.625 3.39375l3.7875.1125c1.3125.0375 2.595833.05625 3.85.05625s2.56875-.01875 3.94375-.05625l3.88125-.1125c-.006266-1.1256983-.093995-2.2494671-.2625-3.3625-.170443-1.1528962-.529403-2.2698965-1.0625-3.30625-.517185-1.0114023-1.272128-1.8821613-2.2-2.5375-1.100034-.7003593-2.391586-1.0390914-3.69375-.96875-1.297038-.0456552-2.577727.3006536-3.675.99375z"/><path d="m137.6625 47.35c0-1.5708333-.029167-3.1229167-.0875-4.65625-.0375-1.53125-.08125-.0375-.1375-1.43125s-.11875-2.58125-.2-3.56875c1.740456.4474166 3.565794.4474166 5.30625 0-.083333.9833333-.15625 2.1625-.21875 3.5375s-.11875-.1375-.15625 1.375-.075 3.03125-.09375 4.5625 0 2.94375 0 4.24375v4.475h.1125c.999483-1.589152 2.348274-2.9293932 3.94375-3.91875 1.66075-.9557014 3.553364-1.4337215 5.46875-1.38125 1.12459.0029644 2.243421.1606944 3.325.46875 1.116422.3119538 2.151043.8644632 3.03125 1.61875.9675.8567536 1.722764 1.9265326 2.20625 3.125.620256 1.6047801.911446 3.3179098.85625 5.0375 0 1.6916667-.0375 3.4291667-.1125 5.2125s-.1125 3.6791667-.1125 5.6875v3.83125 1.875c0 .625.04375 1.1875.08125 1.7375-.783333-.075-1.602083-.1125-2.45625-.1125s-1.654167.0375-2.4.1125c.075-2.0416667.158333-4.1416667.25-6.3s.1375-4.3770833.1375-6.65625v-3.59375c0-2.9458333-.570833-5.175-1.7125-6.6875-1.090824-1.4901175-2.84811-2.3441911-4.69375-2.28125-2.754167 0-4.770833.84375-6.05 2.53125s-1.916667 4.0645833-1.9125 7.13125v3.825c0 1.45.05 2.9125.09375 4.375s.09375 2.89375.15625 4.26875.1375 2.5.21875 3.35625c-.904167-.075-1.789583-.1125-2.65625-.1125s-1.75.0375-2.65.1125c.075-.90625.14375-2.04375.2-3.41875s.1-2.825.1375-4.375.0625-3.08125.0875-4.65625 0-3.025 0-4.375v-10.6125c.045833-1.3375.058333-2.7916667.0375-4.3625z"/><path d="m168.425 58.4625c.752516-1.7452282 1.891582-3.2967512 3.33125-4.5375 1.354042-1.1501325 2.927486-2.0134003 4.625-2.5375 3.32381-1.0598305 6.89494-1.0598305 10.21875 0 1.687327.5303345 3.251398 1.3931236 4.6 2.5375 1.43453 1.2440643 2.570902 2.7948277 3.325 4.5375.894691 2.1566041 1.320772 4.4787467 1.25 6.8125.071154 2.3337822-.354941 4.6560046-1.25 6.8125-.754657 1.7423523-1.890944 3.2929997-3.325 4.5375-1.338289 1.1394573-2.907649 1.9753117-4.6 2.45-3.341231.9412148-6.877519.9412148-10.21875 0-1.702169-.4689031-3.280878-1.3051918-4.625-2.45-1.439186-1.2411946-2.578164-2.7925982-3.33125-4.5375-.894141-2.1567667-1.3202-4.4787901-1.25-6.8125-.069819-2.333681.356226-4.6556251 1.25-6.8125zm4.375 11.58125c.260486 1.4388218.767972 2.821721 1.5 4.0875.685151 1.1755265 1.657082 2.1582091 2.825 2.85625 2.732209 1.4133542 5.980291 1.4133542 8.7125 0 1.167918-.6980409 2.139849-1.6807235 2.825-2.85625.732028-1.265779 1.239514-2.6486782 1.5-4.0875.588005-3.1540791.588005-6.3896709 0-9.54375-.260765-1.4407159-.768212-2.8256225-1.5-4.09375-.685151-1.1755265-1.657082-2.1582091-2.825-2.85625-2.732209-1.4133542-5.980291-1.4133542-8.7125 0-1.168088.6978248-2.140067 1.6805565-2.825 2.85625-.731674 1.2681807-1.239113 2.653067-1.5 4.09375-.585575 3.1543032-.585575 6.3894468 0 9.54375z"/><path d="m201.875 56.63125c-.0625-1.9416667-.189583-3.7583333-.38125-5.45.869246.172535 1.751594.2708061 2.6375.29375.343461-.0016154.686235-.0308766 1.025-.0875l1.31875-.20625c-.108333 1.5708333-.1625 3.1416667-.1625 4.7125h.11875c2.083333-3.5333333 5.0125-5.3 8.7875-5.3.979465 0 1.953163.1498695 2.8875.44375.907721.2767865 1.770773.6830526 2.5625 1.20625.76004.5083007 1.427929 1.1423719 1.975 1.875.531835.6879706.913004 1.4801212 1.11875 2.325h.11875c.847877-1.7807559 2.185491-3.2831324 3.85625-4.33125 1.696277-1.0198622 3.64614-1.5398255 5.625-1.5 1.216233-.0112738 2.42673.167981 3.5875.53125 2.214117.6698995 3.976155 2.3553273 4.74375 4.5375.480385 1.3619715.709105 2.7999451.675 4.24375 0 .66875 0 1.39375-.05625 2.18125s-.08125 1.7-.1125 2.74375-.075 2.21875-.1125 3.53125-.05 2.8375-.05 4.5625v3.0625c0 .98125.0625 2.04375.1375 3.18125-.429299-.0747608-.86424-.1123999-1.3-.1125h-2.5375c-.433667.0005805-.866492.0382174-1.29375.1125.120833-.9833333.254167-2.9666667.4-5.95s.216667-7.15.2125-12.5c.007857-.9328751-.101329-1.8630521-.325-2.76875-.185262-.8080117-.534101-1.5695011-1.025-2.2375-.493881-.6448785-1.137437-1.1597237-1.875-1.5-.930352-.4004615-1.937697-.5904058-2.95-.55625-1.250933-.0386884-2.49075.2454362-3.6.825-.880684.4762368-1.649831 1.134593-2.25625 1.93125-.298002.4004546-.547649.8347144-.74375 1.29375-.218955.6383508-.355477 1.3020548-.40625 1.975-.1.88125-.16875 2.11875-.20625 3.70625s-.0625 3.75-.0625 6.56875c0 1.6875.027083 3.2291667.08125 4.625.05625 1.39375.125 2.9125.2 4.5625-.89375-.075-1.75-.1125-2.56875-.1125s-1.66875.0375-2.56875.1125c.1875-2.1583333.31875-4.35625.39375-6.59375s.1125-4.4375.1125-6.6c0-1.84375 0-3.2875 0-4.33125-.005432-.8354103-.055503-1.6699336-.15-2.5-.057099-.5097418-.165995-1.012338-.325-1.5-.156308-.4431916-.342141-.87541-.55625-1.29375-.496086-.8080986-1.199652-1.4685008-2.0375-1.9125-.866887-.5137645-1.854824-.7877123-2.8625-.79375-2.591667 0-4.497917.84375-5.71875 2.53125s-1.829167 4.0645833-1.825 7.13125v5c0 1.7666667.029167 3.6229167.0875 5.56875s.185417 3.7041667.38125 5.275c-.9-.075-1.78125-.1125-2.64375-.1125s-1.74375.0375-2.64375.1125c.195833-1.5666667.322917-3.325.38125-5.275s.089583-3.80625.09375-5.56875v-6.125c-.033333-1.75-.0875-3.5979167-.1625-5.54375z"/><path d="m251.96875 54.71875c2.295833-2.7541667 5.64375-4.1291667 10.04375-4.125 1.843319-.0430537 3.676185.2886483 5.3875.975 1.431853.5963706 2.725429 1.4814483 3.8 2.6 1.022154 1.0889971 1.794291 2.387979 2.2625 3.80625.49886 1.5034492.747994 3.0784826.7375 4.6625v1.15c0 .36875-.05.7625-.0875 1.15l-6.3-.1125c-2.083333-.0375-4.183333-.05625-6.3-.05625-1.295833 0-2.58125.01875-3.85625.05625l-3.8625.1125c-.042861.291713-.061674.586455-.05625.88125v.7625c-.011871 1.4626612.216153 2.9173733.675 4.30625.410904 1.2736419 1.081244 2.4483321 1.96875 3.45.886286.979772 1.967799 1.7632299 3.175 2.3 1.379357.5981057 2.871936.8902246 4.375.85625.814908-.002525 1.625975-.1117878 2.4125-.325.830738-.2178754 1.638617-.5150746 2.4125-.8875.777187-.3705238 1.516144-.8164099 2.20625-1.33125.656611-.4849156 1.258117-1.0403127 1.79375-1.65625l.29375.175-.35 2.8875c-1.324845 1.027085-2.800638 1.8429875-4.375 2.41875-1.737898.6643704-3.583194 1.0033456-5.44375 1-1.976039.0238863-3.940383-.3063267-5.8-.975-1.689879-.6166207-3.231466-1.5811772-4.525-2.83125-1.277684-1.2353534-2.280723-2.7260699-2.94375-4.375-.698301-1.7422355-1.048645-3.6043624-1.03125-5.48125-.0375-4.8458333 1.091667-8.64375 3.3875-11.39375zm6.46875-1.25c-.984161.6549534-1.822494 1.5060532-2.4625 2.5-.656468 1.0209173-1.153823 2.1357514-1.475 3.30625-.319079 1.1080271-.528419 2.2447473-.625 3.39375l3.79375.1125c1.3125.0375 2.59375.05625 3.85.05625s2.60625 0 3.9375-.05625l3.88125-.1125c-.005407-1.1280492-.095241-2.2541115-.26875-3.36875-.167474-1.1527613-.524369-2.2699062-1.05625-3.30625-.520402-1.0111197-1.277268-1.8816236-2.20625-2.5375-1.101477-.6959742-2.392925-1.0303084-3.69375-.95625-1.297038-.0456552-2.577727.3006536-3.675.99375z"/><path d="m280.98125 75c.438418.4952764.931091.9397304 1.46875 1.325.59982.4276144 1.253359.7743473 1.94375 1.03125 1.439432.5286296 3.016468.5484804 4.46875.05625.663101-.2218319 1.28117-.5604997 1.825-1 .536934-.4475826.964484-1.0119488 1.25-1.65.328138-.7215641.490447-1.5074782.475-2.3.067669-1.0371698-.307014-2.0544915-1.03125-2.8-.747152-.6866029-1.616307-1.2271746-2.5625-1.59375-1.093857-.4352494-2.214997-.798524-3.35625-1.0875-1.1712-.2951087-2.299309-.7404702-3.35625-1.325-1.009688-.559916-1.884379-1.3343373-2.5625-2.26875-.747378-1.1559771-1.108471-2.5193799-1.03125-3.89375-.021603-1.2185902.190558-2.4300275.625-3.56875.41494-1.058059 1.054679-2.0134014 1.875-2.8.880251-.8268466 1.920313-1.4649217 3.05625-1.875 1.339678-.4751267 2.753777-.7058704 4.175-.68125 1.250835-.0337921 2.49704.1654312 3.675.5875 1 .39375 1.95625.74375 2.85625 1.05625-.357352.6975766-.652253 1.4254172-.88125 2.175-.219947.6566584-.397398 1.3267939-.53125 2.00625h-.70625c-.355712-.9982249-.986169-1.8756645-1.81875-2.53125-.946701-.761985-2.135403-1.1589582-3.35-1.11875-.599584.0011922-1.194939.100418-1.7625.29375-.578435.193243-1.114991.4943934-1.58125.8875-.494589.4224893-.894901.9441727-1.175 1.53125-.327892.7015269-.488358 1.4696257-.46875 2.24375-.068634 1.0717084.301354 2.1252726 1.025 2.91875.730103.7162007 1.60336 1.2699731 2.5625 1.625 1.095452.4154435 2.216522.7599064 3.35625 1.03125 1.164993.2800316 2.291902.6997371 3.35625 1.25 1.015337.5245627 1.891488 1.2828938 2.55625 2.2125.765692 1.1474022 1.144546 2.5095271 1.08125 3.8875-.002613 1.1599997-.251875 2.3061827-.73125 3.3625-.506766 1.1196108-1.226365 2.1300214-2.11875 2.975-.95963.9055511-2.092866 1.6071791-3.33125 2.0625-1.413564.5128138-2.909003.7627596-4.4125.7375-1.527768.0344074-3.052871-.1443978-4.53125-.53125-1.066341-.295068-2.094245-.7146209-3.0625-1.25.295162-.6795492.541617-1.3792311.7375-2.09375.225699-.7149308.353938-1.4570371.38125-2.20625h.7c.246631.4767303.553291.9199176.9125 1.31875z"/><path d="m328.675 36.1375c.895858.6035856 1.833658 1.1424549 2.80625 1.6125 1.05.4625 1.96875.76875 2.775.55625.901282-.2407615 1.713301-.7379605 2.3375-1.43125-.95625 1.65-2.75 3.03125-5.8 1.48125-3.48125-1.76875-6.71875-3.925-11.79375-5.68125-5.230846-1.8332429-10.710269-2.859581-16.25-3.04375-17.88125-.49375-32.375 11.35625-46.83125 13.50625-19.375 2.88125-31.56875-8.48125-38.3875-14.3375 16.4375-5.3375 25.6875-9.00625 36.825-10.4625 9.65-1.25 14.1375-1.05 22.425-.425s16.46875 2.5 25.5625 5.5625c4.51875 1.56875 9.0125 3.8875 13.9375 6.35 3.621923 1.7038826 7.129311 3.6412968 10.5 5.8-8.50625-5.3125-11.875-7.6-20.475-11.25-8.398864-3.7108928-17.24015-6.3260985-26.30625-7.78125-9.11875-1.475-14.65-1.65625-25.4-.5s-22.65625 4.34375-38.95 9.94375c5.5875-8.0375 11.25-12.55625 17.59375-15.625 6.024952-2.8077022 12.517754-4.47540285 19.15-4.91875 12.6125-.85 20.375 1.6 31.4125 5.625 10.9375 4.04375 21.15 9.5625 30.56875 15.44375 5.13125 3.18125 10.49375 7.1875 14.3 9.575z"/></g></svg>