<svg fill="none" height="288" viewBox="0 0 967 288" width="967" xmlns="http://www.w3.org/2000/svg" xmlns:xlink="http://www.w3.org/1999/xlink"><clipPath id="a"><path d="m0 0h967v288h-967z"/></clipPath><g clip-path="url(#a)"><path d="m657.171 17.1583h-93.356l.143 89.0117-132.132 82.331-27.178-15.882 132.132-83.1626-58.959-37.6112-132.976 83.1628-22.575-15.049 131.715-82.747-59.375-37.1831914-150.151 93.9922914c-21.231-54.1582-75.884-76.8509-142.717-76.8509h-101.742v256.7518h124.923c59.138 0 104.811-30.597 121.784-80.357l149.996 94.408 167.207-104.988-.083 90.925h175.901v-82.414h-82.545v-174.3377zm-551.338 179.7947h-12.4764v-99.4252h12.4764c34.077 0 54.856 15.3222 54.856 51.4242.012 33.7-23.848 48.001-54.856 48.001zm747.876-179.7947h-93.357v256.7637h175.902v-82.414h-82.545z" fill="#000"/></g></svg>