<svg fill="none" height="816" viewBox="0 0 2500 816" width="2500" xmlns="http://www.w3.org/2000/svg" xmlns:xlink="http://www.w3.org/1999/xlink"><clipPath id="a"><path d="m0 0h2500v816h-2500z"/></clipPath><g clip-path="url(#a)" fill="#fff"><path d="m307.886.0722656h22.231c77.182 1.6778544 153.104 32.7181344 207.635 87.6678344-20.135 20.5539-40.688 40.2689-60.403 60.8219-30.621-27.684-67.534-49.077-107.802-56.6273-59.564-12.5839-123.742-1.2584-173.658 32.7183-54.53 35.654-91.443 96.057-99.4125 160.654-8.8088 63.759 9.2285 130.873 50.7545 180.369 39.849 48.239 100.672 78.44 163.591 80.537 58.725 3.356 119.967-14.681 162.752-55.788 33.557-28.943 49.077-72.987 54.111-115.772-69.631 0-139.262.419-208.893 0v-86.41h293.205c15.1 92.702-6.712 197.148-77.182 263.423-46.979 46.98-111.996 74.665-178.271 80.118-64.178 6.292-130.453-5.873-187.5-36.913-68.373-36.493-122.9031-98.154-149.7488-170.722-25.16775-66.694-25.58721-142.198-2.0973-209.312 21.3926-61.241 62.5-115.352 115.3521-153.1037 50.755-37.3322 112.416-57.88587 175.336-61.6610344z"/><path d="m1989.93 21.8843h89.77v598.9937c-29.78 0-59.99.419-89.77-.42.42-199.245 0-398.909 0-598.5737z"/><path d="m811.661 229.518c55.369-10.486 115.352 1.259 161.074 34.396 41.525 29.363 70.465 75.504 79.275 125.839 11.33 58.306-2.93 122.064-40.68 168.205-40.692 51.594-107.387 79.278-172.404 75.084-59.564-3.356-117.45-33.138-152.684-81.796-39.849-53.691-49.497-127.516-27.685-190.436 21.812-67.533 83.473-119.127 153.104-131.292zm12.584 79.698c-22.651 5.873-43.624 18.876-58.725 37.333-40.688 48.657-38.171 127.936 6.712 173.238 25.587 26.006 64.177 38.171 99.832 31.04 33.137-5.872 62.08-28.104 78.02-57.466 27.684-49.917 19.715-118.708-22.651-157.719-27.265-25.167-67.114-35.654-103.188-26.426z"/><path d="m1256.29 229.518c63.34-12.164 132.55 5.453 179.95 49.917 77.18 69.211 85.57 198.825 19.72 278.523-39.85 50.336-104.45 78.02-168.21 75.084-60.82-1.678-120.8-31.879-156.88-81.795-40.69-54.95-49.49-130.453-26.42-194.631 23.07-65.436 83.47-115.353 151.84-127.098zm12.59 79.698c-22.66 5.873-43.63 18.876-58.73 36.913-40.27 47.819-38.59 125.839 4.62 171.561 25.58 27.265 65.43 40.688 102.34 33.137 32.72-6.292 62.08-28.104 78.02-57.466 27.27-50.336 19.3-119.128-23.49-158.138-27.26-25.168-67.11-35.235-102.76-26.007z"/><path d="m1633.39 253.847c48.24-30.201 112.42-38.59 164.43-12.584 16.36 7.131 29.78 19.296 42.78 31.46.42-11.326 0-23.07.42-34.815 28.11.419 56.21 0 84.74.419v369.966c-.42 55.789-14.69 114.933-54.95 155.621-44.05 44.883-111.58 58.725-172.4 49.497-65.02-9.648-121.65-57.047-146.82-117.03 25.17-12.165 51.6-21.812 77.6-33.138 14.69 34.396 44.47 63.759 81.8 70.47s80.54-2.517 104.87-33.557c26-31.879 26-75.503 24.74-114.513-19.29 18.875-41.52 35.654-68.37 41.946-58.3 16.359-122.48-3.775-167.36-43.205-45.31-39.429-72.15-100.252-69.64-160.654 1.26-68.373 39.85-134.228 98.16-169.883zm86.83 53.691c-25.59 4.195-49.5 18.457-65.86 38.172-39.43 46.979-39.43 122.063.42 168.204 22.65 27.265 59.15 42.366 94.38 38.591 33.14-3.356 63.76-24.329 80.12-53.272 27.68-49.077 23.07-115.772-14.26-158.557-23.07-26.426-59.99-39.43-94.8-33.138z"/><path d="m2187.5 275.24c50.34-46.98 127.94-62.92 192.53-38.171 61.25 23.07 100.26 81.376 119.97 141.359-91.02 37.751-181.63 75.084-272.65 112.835 12.58 23.91 31.88 45.722 57.88 54.531 36.5 13.003 80.12 8.389 110.74-15.94 12.17-9.228 21.82-21.393 31.04-33.138 23.07 15.521 46.14 30.621 69.21 46.141-32.71 49.077-87.66 83.474-146.81 88.927-65.43 7.969-135.06-17.198-177.43-68.373-69.63-80.537-62.92-215.604 15.52-288.171zm44.88 77.601c-14.26 20.553-20.13 45.721-19.71 70.469 60.82-25.167 121.64-50.335 182.46-75.922-10.06-23.49-34.39-37.752-59.14-41.527-39.85-7.131-81.38 14.261-103.61 46.98z"/></g></svg>