<svg fill="none" height="72" viewBox="0 0 72 72" width="72" xmlns="http://www.w3.org/2000/svg"><path clip-rule="evenodd" d="m0 36c0-19.8822 16.1178-36 36-36 19.8823 0 36 16.1178 36 36 0 19.8823-16.1177 36-36 36-19.8822 0-36-16.1177-36-36zm41-10.5c.3978 0 .7794.158 1.0607.4393s.4393.6629.4393 1.0607v18c0 .3978-.158.7794-.4393 1.0607s-.6629.4393-1.0607.4393h-9c-.3978 0-.7794-.158-1.0607-.4393s-.4393-.6629-.4393-1.0607v-18c0-.3978.158-.7794.4393-1.0607s.6629-.4393 1.0607-.4393zm-9-1.5c-.7956 0-1.5587.3161-2.1213.8787s-.8787 1.3257-.8787 2.1213v18c0 .7957.3161 1.5587.8787 2.1213s1.3257.8787 2.1213.8787h9c.7957 0 1.5587-.3161 2.1213-.8787s.8787-1.3256.8787-2.1213v-18c0-.7956-.3161-1.5587-.8787-2.1213s-1.3256-.8787-2.1213-.8787zm5.5607 20.5607c-.2813.2813-.6629.4393-1.0607.4393s-.7794-.158-1.0607-.4393-.4393-.6629-.4393-1.0607.158-.7794.4393-1.0607.6629-.4393 1.0607-.4393.7794.158 1.0607.4393.4393.6629.4393 1.0607-.158.7794-.4393 1.0607z" fill="#d34f2d" fill-rule="evenodd"/></svg>