<svg fill="none" height="72" viewBox="0 0 72 72" width="72" xmlns="http://www.w3.org/2000/svg"><path clip-rule="evenodd" d="m72 36c0-19.8823-16.1177-36-36-36-19.8823 0-36 16.1177-36 36 0 19.8823 16.1177 36 36 36 19.8823 0 36-16.1177 36-36zm-22.3323 3.4582c.1402.2713.4716.3804.7522.26 1.1984-.5141 2.5884-.8462 4.1631-.8551 4.6537-.0301 7.2771 2.9853 7.1565 5.7498-.0804 2.1508-2.0605 3.0453-2.4324 3.1057-.2714.0401-.4121.0503-.4523-.1609-.0302-.1406.0703-.2111.3819-.4021.3117-.201 1.2465-.8442 1.4173-2.0102.1708-1.1659-.7137-3.9602-5.1865-4.4828-1.1801-.1426-2.2178-.1073-3.1261.0454-1.0627.1785-1.4776 1.3307-1.4271 2.4071.0503 1.3971-.9147 2.4323-1.9198 3.1761-.583.4321-1.2163.7237-1.7389.8946-.4221.1809-.9851.3618-1.377.2814-.8744-.1809-1.3368-.9548-.7437-2.6635.2977-.8561 1.1209-2.1255 2.4216-3.2742.1858-.1641.2457-.4312.1358-.6533-.2862-.5785-.5715-1.1552-.7281-1.6913-.18-.6225-1.1653-.7514-1.4794-.1846-.487.8789-1.1215 1.9567-1.8275 2.9889-.09.1401-.1802.2704-.2703.4005-.0006.001-.0008.0022-.0003.0033.3112.7232.5621 1.4865.5923 2.2598.0603 1.4072-.5528 2.4625-1.558 3.2062-.5528.4021-1.1257.6735-1.6283.8544-.3216.1408-.9649.3719-1.8896.4323-.5126.0401-.9951 0-1.2664-.201-.3719-.2816-.4122-.6334-.2212-1.1057.1285-.3211.9366-1.2771 1.7791-2.2737.2123-.2512.4268-.505.6332-.7518.2797-.3396.5496-.6795.7897-.9994.0025-.0033.0021-.0079-.0008-.0107-.0028-.0029-.0032-.0074-.0008-.0107.0213-.0285.123-.1651.2866-.3912.119-.1645.1401-.3807.0521-.5637-.0732-.1522-.1487-.3048-.224-.457-.2803-.5664-.5587-1.1292-.7118-1.6582-.1623-.5616-1.0716-.6392-1.3-.1011-.4712 1.1105-1.0973 2.5231-1.7355 3.7798-.9998 1.9696-1.6714 3.1635-1.9753 3.6905-.0032.0057-.0048.0118-.0048.0183 0 .0067-.0017.0132-.0051.0189-.0367.0618-.0752.1226-.1155.1821-.0316.0553-.0508.0858-.0575.0963-.0009.0013-.0028.0007-.0028-.0008 0-.0015-.0019-.0023-.0027-.001-.343.5037-1.0949 1.4735-1.8467 1.4735-.6758 0-1.0489-.4508-1.2451-1.0568-.1143-.3532-1.1791-.5804-1.3481-.2498-.5528 1.0954-1.0554 2.0102-2.161 2.0102-.3116 0-.8142-.0102-1.2363-.402-.9549-.9047-1.6786-3.1962-1.5379-4.9653.0387-.484.0888-.9193.1496-1.3162.1142-.7449-.717-1.4191-1.3659-1.0357l-.967.5688c-.0328.0193-.045.0606-.0279.0945.8543 1.6384 1.0753 5.2267-.774 7.9908-1.8595 2.764-5.297 4.4426-8.6541 3.5078-1.0855-.3015-2.7138-2.543-1.3066-5.6589 1.2463-2.7539 6.2217-5.3573 7.5283-6.0005.0472-.0258.0963-.0534.1472-.082.1034-.0583.1191-.2022.0278-.2781-.6474-.5384-1.4937-1.1213-2.4199-1.759-2.9709-2.046-6.7632-4.6575-7.4445-8.1834-.2613-1.3267.3619-4.523 4.2819-8.1817 3.2968-3.0857 7.8801-5.4377 12.1118-6.9453 7.1062-2.5229 14.6245-1.0353 15.7804 3.4978 1.1358 4.4527-2.7339 9.7798-7.6892 11.6996-4.4225 1.7087-8.0813 1.4373-9.5788.9448-1.7087-.5629-2.7138-1.6886-2.9551-2.3218-.1005-.2513-.2613-.6735 0-.8142.1609-.0904.2212-.0703.6534.4021.412.4523 2.0504 1.6584 5.1663 1.3066 8.1816-.9146 13.1067-7.267 11.5487-10.6844-1.0954-2.3922-7.3976-3.4677-15.2677.4523-9.609 4.7844-10.1317 8.7345-10.2121 10.2321-.1529 2.8488 2.3408 4.7657 4.8447 6.6905 1.1182.8596 2.2385 1.7208 3.1259 2.6672.065.0711.1699.089.2546.0431.2803-.1517.5675-.3102.8546-.4687.2243-.1238.4487-.2476.6698-.3682 1.0071-.5526 1.9753-1.0808 2.6878-1.4695.5062-.2761.9298-.6769 1.3101-1.1103 1.0965-1.2498 2.7557-2.4056 4.0129-2.4056 2.0245 0 1.7281 2.4818 1.5978 3.2091-.0016.0089.0617.0373.0707.0373.0117 0 .031-.017.0599-.0425.1198-.1058.4042-.3571.9955-.1384.6838.2461.6068.7073.5866.8284-.0021.0124-.0035.0213-.0035.0259.0033.0371-.0963.4024-.2443.9448-.2929 1.0739-.7752 2.8421-1.0223 4.1311-.1709.9246-.0704 1.598-.0201 1.598.07 0 .2194-.2382.3594-.4878.0017-.003.0025-.0064.0025-.0098 0-.0032.0008-.0063.0023-.0092.0158-.0299.1139-.2163.2792-.5284.006-.0121-.008.0131-.0247.0434-.0389.0702-.0927.1671.0548-.1138.2112-.402.5026-.9951.8343-1.7388.0507-.1132.1127-.2514.1839-.4101.8459-1.8855 2.9986-6.6843 3.1934-7.259.1296-.3654.2213-.7377.2952-1.0379.0521-.2118.0954-.3877.137-.5.1005-.2713.995-.4824 2.0303-.4724 1.0352.0101 1.1357.4523 1.1458.5428 0 .0302-.0455.1623-.1121.3557-.1548.4496-.4237 1.231-.501 1.8355-.0913.7129-.032 1.1387.0423 1.6721.0157.1133.0322.2314.048.3581.1044.8337 1.2702.8485 1.6881.1196.9788-1.7075 2.0385-3.7056 2.1717-4.4013.1306-.6433.3317-1.2665.4322-1.5378.1005-.2714.9952-.4825 2.0303-.4725 1.0352.0101 1.1357.4523 1.1459.5428 0 .0302-.0455.1622-.112.3556-.1548.4497-.4238 1.2311-.5011 1.8357-.0912.7132-.0319 1.1391.0425 1.6728.0158.1131.0322.231.048.3575.0662.5139.406 1.1714.7937 1.9218zm-34.0231 12.7428c.8845.5227 2.9651-.0904 4.4426-1.7087 1.5579-1.6985 2.2012-3.8494 1.5279-6.3017 0-.0002-.0003-.0003-.0004-.0002-.0439.0275-.0878.0549-.13.0807-.0668.0407-.1363.0769-.2014.1202-.1523.0922-.295.178-.4249.2561-.196.1178-.3628.2181-.4897.2967-.9449.593-2.3822 1.5579-3.4878 2.6032-1.8194 1.7188-2.1912 4.1009-1.2363 4.6537zm14.9368-8.2587c.1172-.3059.2226-.5809.3109-.7974.3216-.784 1.578-4.2818 1.3167-4.7644-.2212-.3719-1.1056-.0703-1.9199.8343-.5026.5629-1.3569 2.0102-1.759 3.2265-.7939 2.4123-.4523 4.8548.1107 5.0055.5408.1498 1.3776-2.0348 1.9406-3.5045zm8.7137 3.5951c.0905.0602.2915-.0201.5126-.1308.6232-.392 2.0103-1.3569 2.0102-2.8042 0-.0389-.0496-.0557-.0733-.0248-.1848.2406-.3621.4643-.5259.671-.0969.1222-.189.2385-.2753.3489-.3393.4242-1.0751 1.227-1.3992 1.5777-.1059.1147-.3846.2847-.2491.3622zm7.7896-3.3572c-.4673 1.0039.3536 1.5476 1.0649.699.3526-.4207.6092-1.0005.6136-1.8047.0157-.4183-.4978-.5556-.7747-.2416-.4609.5229-.7522 1.0154-.9038 1.3473z" fill="#cf649a" fill-rule="evenodd"/></svg>