<svg fill="none" height="72" viewBox="0 0 72 72" width="72" xmlns="http://www.w3.org/2000/svg"><path clip-rule="evenodd" d="m0 36c0-19.8822 16.1178-36 36-36 19.8823 0 36 16.1178 36 36 0 19.8823-16.1177 36-36 36-19.8822 0-36-16.1177-36-36zm35-8c-3.866 0-7 3.134-7 7s3.134 7 7 7c1.886 0 3.5977-.7458 4.8564-1.9586.0263-.0343.0551-.0672.0865-.0985.0313-.0314.0642-.0602.0985-.0865 1.2128-1.2587 1.9586-2.9704 1.9586-4.8564 0-3.866-3.134-7-7-7zm7.0319 12.6177c1.2316-1.5397 1.9681-3.4927 1.9681-5.6177 0-4.9706-4.0294-9-9-9s-9 4.0294-9 9 4.0294 9 9 9c2.125 0 4.078-.7365 5.6177-1.9681l3.6752 3.6752c.3905.3905 1.0237.3905 1.4142 0s.3905-1.0237 0-1.4142z" fill="#fb5722" fill-rule="evenodd"/></svg>