<svg fill="none" height="72" viewBox="0 0 72 72" width="72" xmlns="http://www.w3.org/2000/svg"><path clip-rule="evenodd" d="m36 0c-19.8822 0-36 16.1178-36 36 0 19.8823 16.1178 36 36 36 19.8823 0 36-16.1177 36-36 0-19.8822-16.1177-36-36-36zm-8.8025 38.5649-4.1191-14.0065h-2.9828l1.3637 4.5743-2.7848 9.4322-4.1198-14.0065h-2.9833l6.8195 23.013h.2836l4.2617-14.2625 4.2613 14.2623h.284l5.8391-19.707.2727-.4651h4.8014l-3.9772 6.8746v1.3632h1.1359c1.459 0 2.5291.4466 3.2116 1.3372.5864.7563.8809 1.8274.8809 3.2098 0 1.2512-.2749 2.3213-.8241 3.2116-.5495.8898-1.2227 1.3345-2.0175 1.3345-.7569 0-1.4152-.2512-1.9743-.7525-.5592-.5012-1.009-1.1888-1.3497-2.0608l-2.3299.9676c.4732 1.4383 1.2032 2.5797 2.1876 3.4225.9847.842 2.1403 1.2646 3.4663 1.2646 1.7612 0 3.1956-.7107 4.3042-2.1315 1.1076-1.4206 1.6625-3.1713 1.6625-5.256 0-1.6844-.3796-3.1519-1.1376-4.4031-.7565-1.2494-1.8742-2.1115-3.3522-2.5866l4.2046-7.2435v-1.3923h-11.1681zm31.4009-12.3818c0-.3019-.1997-.4231-.6345-.4231v-.0002h-.3809v.8159h.3927c.4228 0 .6227-.1027.6227-.3926zm-1.4787-.7247h.9285c.689 0 1.027.2291 1.0266.6767 0 .35-.2051.592-.5614.6643l.5498 1.123h-.5195l-.5012-1.0511h-.4591v1.0511h-.4637zm2.2089 2.603c.3568-.344.5499-.8094.5499-1.3106 0-.5256-.1876-.9968-.5381-1.3479-.3621-.3673-.8268-.5614-1.3465-.5614-.5069 0-.9727.1874-1.3153.5377-.3693.3746-.5746.858-.5746 1.3531 0 .495.1986.9601.5554 1.3226.3559.3628.8331.562 1.3161.562.5133 0 .9791-.1931 1.3531-.5555zm-2.8506-2.8873c.399-.4044.9253-.6157 1.5108-.6157.5904 0 1.1348.2235 1.5521.6461.3983.405.6275.9484.6275 1.528 0 .5981-.2231 1.1297-.6335 1.5284-.4291.4166-.979.6461-1.5461.6461-.5798 0-1.1173-.2301-1.5341-.6528-.4108-.4165-.6343-.9477-.6343-1.5219 0-.5741.2364-1.1295.6576-1.5582zm-1.6647 2.1924-.4826-2.9379-1.6846 3.3589s-.7243-1.3354-1.4383-1.9464c-.6813-.5811-1.5634-1.1188-2.6779-1.0033-1.0786.1112-2.2942 1.0594-3.1113 2.6401-.9295 1.7972-1.2452 3.6186-1.2513 5.6268-.0099 2.8155 1.028 4.7369 1.028 4.7369s-.2384-.8928-.1983-2.4067c.0007-.0288.0015-.0578.0023-.0869.024-.9203.0509-1.9468.7412-4.0031.5961-1.7723 1.9587-3.21 3.1614-3.4578.9368-.1934 1.5349-.0526 2.454.5949 1.0908.768 1.7477 2.1566 1.7477 2.1566zm-1.4992 15.5561c.4722-.5195 1.2275-1.87 1.2275-1.87l.4342 2.2665s-.2693.5241-.4348.7816c-.2257.3535-.6345.9437-1.0655 1.4046-.4129.4427-1.0656.9889-1.376 1.1879l-.0148.0094c-.3335.2117-1.575 1.0003-3.3692.6834-1.8214-.3225-3.0208-1.7498-3.6379-2.5788-.6615-.8888-1.1277-1.9095-1.28-2.2438-.2632-.5797-.6844-1.9458-.6844-1.9458s.7553 1.3635 1.2393 2.0447c.4834.6821 1.3378 1.4129 1.6733 1.6619.3357.2467 1.2899.842 2.3185.9417 1.0286.0994 1.574.0131 2.615-.4456 1.0407-.4584 1.8845-1.3764 2.3548-1.8977z" fill="#0067b1" fill-rule="evenodd"/></svg>