<svg fill="none" height="72" viewBox="0 0 72 72" width="72" xmlns="http://www.w3.org/2000/svg"><rect fill="#1c78c0" height="72" rx="36" width="72"/><path d="m53.9445 47.1348-16.6694 9.4368v-7.3502l10.3706-5.7111zm1.1428-1.0318v-19.7192l-6.0996 3.5265v12.6727l6.0964 3.5167zm-35.9444 1.0318 16.653 9.4302v-7.3436l-10.3739-5.7111zm-1.1429-1.0318v-19.7192l6.0996 3.5265v12.6727zm.7151-20.9959 17.0971-9.6784v7.1053l-10.9551 6.0245-.0881.049zm35.6506 0-17.0906-9.6784v7.1053l10.9551 6.0212.0882.049 6.0538-3.4971zm-18.5535 22.4424-10.2498-5.6392v-11.1608l10.2498 5.9037zm1.4629 0 10.2498-5.6326v-11.1674l-10.2498 5.9037zm-11.0171-18.08 10.2857-5.662 10.2857 5.662-10.2857 5.9298z" fill="#fff"/></svg>