<svg fill="none" height="440" viewBox="0 0 685 440" width="685" xmlns="http://www.w3.org/2000/svg"><path clip-rule="evenodd" d="m.144559 209.962 137.158441 34.689-11.145 44.067 73.262 18.528 11.145-44.067 27.873 7.049c38.217 78.749 102.837 107.066 172.224 77.712 10.919-4.619 20.718-10.149 29.364-16.511l-.959 55.366 32.022 52.345 120.686-73.829 23.72 38.775 64.463-39.435-23.72-38.775 28.596-17.494-32.023-52.345-28.596 17.493-96.067-157.036-60.612 37.079c-37.598-85.492-103.517-114.8783-175.365-84.3311-14.942 6.3526-27.823 14.2905-38.541 23.658l17.117-67.683-96.947-24.518649-158.6099 149.773749zm467.391441-56.389-24.692 15.105-2.818 162.751c49.052-36.097 60.931-98.991 29.007-174.388-.494-1.166-.993-2.322-1.497-3.468zm-213.906-60.6731-28.02 110.7891 32.5 8.219-15.046 59.491-4.626-1.171c-1.989-4.098-3.906-8.332-5.749-12.702-29.667-70.355-20.665-128.263 20.941-164.6261zm-99.629 92.6781-63.346-16.02.5572-2.204 85.6618-81.484 2.203.5573zm407.206 126.498-55.739 34.098-1.186-1.939 1.615-118.216 1.939-1.186zm-253.223-86.563c23.693 56.452 52.459 74.012 77.557 63.341 25.099-10.671 32.281-43.515 8.196-99.8-23.529-54.978-51.569-71.92-76.667-61.249-25.099 10.671-32.223 42.563-9.086 97.708z" fill="#fff" fill-rule="evenodd"/></svg>