<svg height="17" viewBox="0 0 31 17" width="31" xmlns="http://www.w3.org/2000/svg"><g transform="translate(0 -.5)"><path d="m.88571429 17.5c-.4891665 0-.88571429-.4477153-.88571429-1s.39654779-1 .88571429-1h29.22857141c.4891665 0 .8857143.4477153.8857143 1s-.3965478 1-.8857143 1z"/><path d="m.88571429 10.5c-.4891665 0-.88571429-.4477153-.88571429-1 0-.55228475.39654779-1 .88571429-1h29.22857141c.4891665 0 .8857143.44771525.8857143 1 0 .5522847-.3965478 1-.8857143 1z"/><path d="m.88571429 2.5c-.4891665 0-.88571429-.44771525-.88571429-1s.39654779-1 .88571429-1h29.22857141c.4891665 0 .8857143.44771525.8857143 1s-.3965478 1-.8857143 1z"/></g></svg>