<svg fill="none" height="353" viewBox="0 0 504 353" width="504" xmlns="http://www.w3.org/2000/svg"><path clip-rule="evenodd" d="m0 221.24 60.0886 25.264 36.336-86.422 54.4684 22.902-23.275 170 69.141-12.778 5.25-47.686 77.899-14.397 21.946 42.66 69.142-12.779-11.161-20.353c.545.175 1.092.347 1.641.516 12.87 3.957 25.724 5.769 38.19 5.545l10.189 23.306 50.657 15.578-20.117-48.561c25.199-12.311 45.763-36.303 56.939-72.649 21.657-70.426-11.995-122.2467-69.241-139.8507-57.659-17.7307-114.202 6.3546-135.858 76.7807-1.117 3.629-2.086 7.211-2.912 10.742l-39.843-72.6602-10.462 1.9336 9.627-22.899-155.6248-65.4324zm189.445-123.7468 38.852 16.3358 10.721-25.4976zm-31.179 31.6388 44.533 18.724-20.348 48.396-31.558-13.268zm0 0 3.635-26.548 27.544-5.0908-56.684-23.8327-15.988 38.0255zm131.057 29.926c-14.967 63.933 16.833 111.337 70.512 128.593zm-81.654 82.84 9.111-82.244 1.844-.341 37.905 73.555zm172.561-2.623-13.985-38.448 44.48 13.678 6.378 16.274c8.876-7.977 16.113-20.515 21.337-37.503 11.652-37.89 2.746-63.169-25.672-71.907-28.417-8.739-49.988 7.167-61.639 45.057-11.652 37.89-2.746 63.168 25.671 71.907h.001c1.133.349 2.265.697 3.429.942z" fill="#fff" fill-rule="evenodd"/></svg>