<svg fill="none" height="161" viewBox="0 0 161 161" width="161" xmlns="http://www.w3.org/2000/svg"><g fill="#000"><path d="m78.4432 12h1.3167v-3.8054h3.7074v-1.12926h-3.7074v-2.65909h4.0952v-1.13352h-5.4119z"/><path d="m91.2607 12.7261 5.4229 1.0452.2145-1.113-4.1299-.796.5056-2.62362 3.7994.73228.2137-1.10886-3.7994-.73227.5033-2.61104 4.0797.78631.2145-1.11304-5.3727-1.0355z"/><path d="m104.412 16.1257 1.602-1.8464 3.165 1.267-.119 2.4404 1.298.5195.328-9.26939-1.413-.56541-6.159 6.9349zm2.37-2.7325 2.578-2.9793.064.0253-.19 3.936z"/><path d="m119.026 14.5792 2.287 1.4699-4.106 6.3883 1.105.7096 4.105-6.3883 2.291 1.4722.613-.9536-5.682-3.6516z"/><path d="m135.864 26.2966-3.888 4.0772c-.817.8574-1.998.9096-2.96-.0079-.959-.9145-.966-2.0989-.149-2.9563l3.888-4.0772-.953-.9086-3.961 4.1542c-1.265 1.3262-1.168 3.2137.346 4.6576s3.407 1.4531 4.672.1269l3.961-4.1543z"/><path d="m134.704 38.187.764 1.0726 2.69-1.9156 1.038 1.4579c.018.0243.032.0451.05.0694l-1.662 3.3597.87 1.2219 1.755-3.6251c.944.6414 1.978.5587 2.933-.1211 1.308-.9319 1.65-2.3992.476-4.048l-1.805-2.534zm4.377-1.5005 2.576-1.8341.959 1.3468c.754 1.0587.562 1.8545-.243 2.428-.802.5709-1.579.4648-2.323-.58z"/><path d="m141.751 49.3354 2.295 5.0237 1.031-.4709-1.747-3.8259 2.43-1.1099 1.607 3.5196 1.028-.4691-1.608-3.5197 2.419-1.1046 1.726 3.7794 1.031-.4709-2.273-4.9771z"/><path d="m147.072 63.9237c.627 2.5841 2.593 3.6903 5.243 3.0473 2.638-.6399 3.866-2.5207 3.26-5.0179l-.687-2.8326-8.482 2.0576zm.763-1.7373 6.245-1.515.357 1.4743c.451 1.8553-.427 3.0812-2.427 3.5664-2.009.4873-3.367-.1961-3.837-2.1301z"/><path d="m149.822 90.4035c-.147 1.025.564 1.9754 1.589 2.1228 1.025.1473 1.976-.5641 2.123-1.5891s-.564-1.9754-1.589-2.1228c-1.025-.1473-1.975.5641-2.123 1.5891z"/><path d="m134.065 122.598-.862.995 2.876 2.492-2.428 2.802.854.74 2.427-2.802 2.01 1.741-2.682 3.095.857.742 3.544-4.09z"/><path d="m125.123 131.81-4.341 3.413.7.891 3.307-2.6 1.651 2.101-3.041 2.392.698.887 3.041-2.392 1.644 2.091-3.266 2.568.701.891 4.301-3.382z"/><path d="m113.942 139.522.346 2.42-3.03 1.562-1.767-1.688-1.242.641 6.79 6.318 1.353-.697-1.208-9.196zm.513 3.581.562 3.9-.06.031-2.851-2.721z"/><path d="m105.54 151.579-2.609.766-2.139-7.286-1.2593.37 2.1393 7.286-2.6126.767.3194 1.088 6.4802-1.903z"/><path d="m85.6582 156.631-.5355-5.608c-.1126-1.179.6208-2.105 1.9444-2.231 1.3192-.126 2.219.644 2.3316 1.823l.5355 5.608 1.3108-.125-.5456-5.714c-.1742-1.824-1.6637-2.988-3.7466-2.789-2.0828.199-3.3295 1.624-3.1553 3.448l.5456 5.714z"/><path d="m77.4314 147.969-1.3108-.126-.3139 3.288-1.7817-.17c-.0297-.003-.0552-.005-.0848-.008l-1.4508-3.456-1.4932-.143 1.5901 3.701c-1.1025.292-1.7174 1.128-1.8288 2.295-.1527 1.599.7326 2.818 2.7476 3.011l3.0967.295zm-1.7325 4.29-.3005 3.148-1.646-.157c-1.2938-.124-1.7696-.79-1.6756-1.774.0936-.98.6824-1.497 1.9592-1.375z"/><path d="m64.391 145.994-5.299-1.556-.3194 1.088 4.0356 1.185-.7527 2.563-3.7126-1.09-.3182 1.084 3.7126 1.09-.7491 2.551-3.9866-1.17-.3193 1.087 5.2499 1.542z"/><path d="m49.8815 140.462c-2.3635-1.219-4.4865-.458-5.7363 1.966-1.2438 2.413-.6263 4.573 1.6577 5.75l2.5907 1.336 3.9991-7.758zm.8136 1.714-2.9446 5.712-1.3485-.696c-1.6968-.874-2.0485-2.341-1.1053-4.17.947-1.837 2.3531-2.416 4.1219-1.504z"/><path d="m28.0686 125.2c-.6781-.783-1.8623-.868-2.6449-.19s-.8673 1.863-.1892 2.645c.6781.783 1.8623.868 2.6449.189.7826-.678.8673-1.862.1892-2.644z"/><path d="m17.5762 104.657-.4307-1.245-3.5961 1.245-1.2125-3.503-1.0672.369 1.2126 3.503-2.51287.87-1.3394-3.87-1.07118.371 1.77007 5.114z"/><path d="m14.0702 92.3068-.786-5.4665-1.122.1613.5986 4.1632-2.6447.3802-.55064-3.8299-1.11776.1607.55066 3.8299-2.63203.3784-.59129-4.1125-1.12199.1613.77869 5.4159z"/><path d="m12.9816 78.7673-2.2689-.9101.1622-3.4052 2.345-.6861.0665-1.3962-8.86686 2.7218-.07239 1.5196 8.56795 3.5524zm-3.35736-1.3459-3.65898-1.4627.00324-.0681 3.78145-1.1083z"/><path d="m6.7403 65.4626.64097-2.6421 7.37973 1.7903.3094-1.2755-7.3797-1.7903.64198-2.6462-1.10157-.2673-1.59238 6.5639z"/><path d="m12.3061 45.7184 5.1244 2.3402c1.0776.4921 1.513 1.5904.9607 2.7998-.5505 1.2056-1.6675 1.5996-2.7451 1.1075l-5.1244-2.3403-.547 1.1978 5.2213 2.3845c1.6668.7612 3.4191.053 4.2883-1.8503.8692-1.9032.2587-3.6952-1.4081-4.4564l-5.2213-2.3845z"/><path d="m23.9218 42.9252.7638-1.0726-2.6902-1.9156 1.0382-1.458c.0173-.0242.0321-.0451.0494-.0694l3.7185.4717.8701-1.2219-3.9999-.4732c.2976-1.1012-.1189-2.0517-1.0734-2.7314-1.3087-.9319-2.807-.7747-3.9811.8741l-1.8044 2.534zm-2.8497-3.6458-2.5757-1.8341.9591-1.3468c.7539-1.0587 1.5687-1.1377 2.374-.5642.8019.571.9556 1.3396.2115 2.3844z"/><path d="m32.1521 32.6192 3.997-3.8111-.7823-.8204-3.044 2.9025-1.8438-1.9337 2.8004-2.6702-.7793-.8173-2.8003 2.6702-1.835-1.9245 3.007-2.8672-.7823-.8203-3.9599 3.7758z"/><path d="m44.1977 22.8196c2.237-1.4376 2.6395-3.6566 1.1651-5.951-1.4676-2.2835-3.6464-2.8284-5.8081-1.4392l-2.4521 1.5758 4.7183 7.3419zm-1.8911-.1523-3.4742-5.406 1.2762-.8202c1.6061-1.0321 3.0516-.6036 4.1644 1.1279 1.1173 1.7387.9159 3.246-.7583 4.3219z"/><path d="m68.3218 11.5603c1.0168-.196 1.6822-1.1792 1.4863-2.19596-.196-1.0168-1.1792-1.68224-2.196-1.48627s-1.6823 1.17916-1.4863 2.19593c.196 1.0168 1.1792 1.6823 2.196 1.4863z"/></g></svg>