<svg fill="none" height="171" viewBox="0 0 171 171" width="171" xmlns="http://www.w3.org/2000/svg"><g fill="#fff"><path d="m82.5909 16h1.7557v-5.0739h4.9432v-1.50565h-4.9432v-3.54545h5.4602v-1.51136h-7.2159z"/><path d="m95.5804 16.5766 7.2306 1.3936.286-1.4841-5.5066-1.0613.6742-3.4981 5.0654.9764.285-1.4785-5.0654-.9764.671-3.48135 5.4394 1.04841.286-1.48405-7.1634-1.38068z"/><path d="m108.544 19.7012 2.136-2.462 4.22 1.6894-.158 3.2539 1.73.6926.437-12.3592-1.883-.75384-8.212 9.24644zm3.16-3.6434 3.438-3.9724.085.0338-.253 5.2479z"/><path d="m125.408 16.2698 3.049 1.9598-5.474 8.5177 1.473.9461 5.474-8.5177 3.054 1.9629.817-1.2714-7.576-4.8688z"/><path d="m143.717 28.6164-5.183 5.4362c-1.09 1.1432-2.664 1.2128-3.947-.0105-1.279-1.2194-1.288-2.7986-.198-3.9418l5.183-5.4362-1.27-1.2116-5.282 5.5391c-1.686 1.7682-1.557 4.2849.462 6.2101 2.019 1.9251 4.543 1.9374 6.229.1692l5.281-5.5391z"/><path d="m140.246 42.2246 1.019 1.4301 3.587-2.5542 1.384 1.9438c.023.0324.043.0602.066.0926l-2.216 4.4796 1.16 1.6292 2.341-4.8335c1.257.8552 2.637.7449 3.909-.1614 1.745-1.2425 2.201-3.1989.635-5.3973l-2.406-3.3787zm5.837-2.0008 3.434-2.4455 1.279 1.7958c1.005 1.4116.749 2.4727-.325 3.2373-1.069.7613-2.104.6198-3.096-.7733z"/><path d="m147.293 53.1145 3.059 6.6982 1.375-.6278-2.33-5.1012 3.241-1.4799 2.143 4.6929 1.37-.6255-2.143-4.6929 3.225-1.4728 2.301 5.0391 1.375-.6278-3.031-6.6362z"/><path d="m152.883 68.0252c.836 3.4455 3.457 4.9204 6.991 4.0631 3.517-.8533 5.154-3.361 4.346-6.6906l-.916-3.7768-11.309 2.7434zm1.017-2.3164 8.327-2.02.477 1.9657c.6 2.4737-.571 4.1082-3.238 4.7552-2.678.6497-4.489-.2615-5.115-2.8401z"/><path d="m156.341 95.6229c-.197 1.3666.752 2.6338 2.118 2.8303 1.367.1965 2.634-.7521 2.831-2.1187.196-1.3667-.752-2.6339-2.119-2.8304s-2.634.7522-2.83 2.1188z"/><path d="m140.379 127.609-1.15 1.327 3.835 3.323-3.237 3.735 1.138.986 3.237-3.735 2.679 2.321-3.575 4.127 1.142.99 4.725-5.454z"/><path d="m131.437 137.048-5.788 4.552.934 1.188 4.408-3.466 2.202 2.8-4.055 3.189.931 1.184 4.055-3.19 2.192 2.787-4.355 3.425.935 1.188 5.734-4.51z"/><path d="m120.586 144.799.462 3.227-4.04 2.083-2.355-2.251-1.657.854 9.054 8.424 1.803-.929-1.61-12.262zm.685 4.774.75 5.2-.081.042-3.801-3.628z"/><path d="m112.136 159.791-3.478 1.021-2.853-9.714-1.679.493 2.853 9.714-3.484 1.023.426 1.45 8.641-2.537z"/><path d="m90.815 165.543-.714-7.477c-.1501-1.572.8278-2.807 2.5925-2.976 1.7591-.168 2.9587.859 3.1088 2.432l.714 7.477 1.7478-.167-.7275-7.619c-.2323-2.432-2.2183-3.983-4.9954-3.718s-4.4393 2.165-4.2071 4.597l.7275 7.619z"/><path d="m82.8037 154.009-1.7478-.167-.4185 4.383-2.3756-.227c-.0396-.003-.0735-.007-.1131-.01l-1.9344-4.609-1.9909-.19 2.1201 4.934c-1.4699.391-2.2898 1.505-2.4383 3.061-.2036 2.132.9768 3.757 3.6634 4.014l4.129.394zm-2.31 5.721-.4007 4.197-2.1946-.21c-1.7251-.165-2.3595-1.053-2.2342-2.365.1248-1.307.9098-1.997 2.6123-1.834z"/><path d="m69.9589 152.203-7.0654-2.075-.4258 1.45 5.3808 1.58-1.0037 3.419-4.9501-1.454-.4242 1.445 4.9501 1.453-.9988 3.402-5.3154-1.561-.4258 1.451 6.9999 2.055z"/><path d="m55.0294 146.663c-3.1513-1.624-5.982-.61-7.6483 2.622-1.6584 3.217-.8351 6.096 2.2102 7.666l3.4543 1.781 5.3321-10.343zm1.0848 2.285-3.9261 7.616-1.7979-.927c-2.2625-1.166-2.7313-3.121-1.4738-5.56 1.2627-2.45 3.1375-3.222 5.4959-2.006z"/><path d="m31.9085 131.203c-.9042-1.043-2.4831-1.156-3.5265-.252-1.0435.904-1.1564 2.483-.2522 3.527.9041 1.043 2.483 1.156 3.5265.252 1.0434-.904 1.1564-2.483.2522-3.527z"/><path d="m21.91 110.789-.5743-1.659-4.7948 1.66-1.6167-4.672-1.4229.493 1.6167 4.671-3.3504 1.16-1.78588-5.16-1.42824.494 2.36012 6.819z"/><path d="m18.2064 98.3256-1.048-7.2887-1.496.2151.7981 5.5508-3.5262.507-.7342-5.1065-1.4904.2142.7342 5.1066-3.50932.5046-.7884-5.4834-1.49598.2151 1.03826 7.2212z"/><path d="m16.9192 85.0533-3.0252-1.2135.2163-4.5403 3.1266-.9148.0887-1.8615-11.82248 3.629-.09651 2.0262 11.42389 4.7364zm-4.4765-1.7946-4.87862-1.9503.00433-.0908 5.04189-1.4776z"/><path d="m8.16086 70.239.85463-3.5228 9.83961 2.3871.4126-1.7007-9.83963-2.387.85593-3.5284-1.46873-.3563-2.12317 8.7518z"/><path d="m13.8399 48.8982 6.8326 3.1204c1.4368.6561 2.0173 2.1205 1.2809 3.7331-.7341 1.6073-2.2233 2.1327-3.6601 1.4766l-6.8326-3.1204-.7293 1.5971 6.9617 3.1793c2.2224 1.0149 4.5588.0706 5.7177-2.467 1.1589-2.5377.345-4.927-1.8774-5.9419l-6.9618-3.1794z"/><path d="m27.8349 47.7276 1.0184-1.4302-3.5869-2.5542 1.3842-1.9439c.0231-.0324.0429-.0601.0659-.0925l4.958.6288 1.1601-1.6291-5.3331-.631c.3968-1.4682-.1585-2.7355-1.4313-3.6419-1.7449-1.2425-3.7426-1.0328-5.3081 1.1656l-2.4059 3.3786zm-3.7996-4.8611-3.4342-2.4454 1.2788-1.7958c1.0052-1.4116 2.0915-1.5169 3.1653-.7523 1.0691.7614 1.2741 1.7862.282 3.1793z"/><path d="m35.8211 37.5065 5.3294-5.0815-1.043-1.0938-4.0587 3.87-2.4584-2.5783 3.7338-3.5602-1.039-1.0897-3.7338 3.5601-2.4467-2.5659 4.0094-3.8229-1.043-1.0938-5.28 5.0344z"/><path d="m48.0834 27.3471c2.9826-1.9168 3.5193-4.8756 1.5533-7.9347-1.9567-3.0447-4.8618-3.7713-7.7441-1.919l-3.2694 2.1012 6.2911 9.7891zm-2.5215-.2031-4.6323-7.2081 1.7016-1.0935c2.1414-1.3762 4.0688-.8048 5.5525 1.5039 1.4898 2.3182 1.2212 4.3279-1.011 5.7624z"/><path d="m73.0325 15.0537c1.3557-.2613 2.243-1.5722 1.9817-2.9279s-1.5722-2.24301-2.928-1.9817c-1.3557.2613-2.2429 1.5722-1.9817 2.9279.2613 1.3558 1.5723 2.243 2.928 1.9817z"/></g></svg>