<svg fill="none" height="883" viewBox="0 0 800 883" width="800" xmlns="http://www.w3.org/2000/svg" xmlns:xlink="http://www.w3.org/1999/xlink"><clipPath id="a"><path d="m0 0h800v882.005h-800z"/></clipPath><g clip-path="url(#a)" clip-rule="evenodd" fill-rule="evenodd"><path d="m317.921 168.723c13.353 7.996 26.473 11.859 32.633 10.282 15.444-3.954 16.863-60.082 4.915-82.2092-11.951-22.1272-73.382-31.7717-76.478 12.0692-1.075 15.216 5.356 28.795 14.857 39.876l-17.036 78.893h49.49z" fill="#b28b67"/><path d="m327.258 71.2946c-6.522-1.0626-24.085-1.7932-27.323-1.7928-2.071 0-4.314.4698-5.538-1.4182-1.005-1.5462-.636-4.161-.937-5.9551-.348-2.0844-.842-4.1418-1.341-6.1939-1.424-5.8397-3.574-11.3954-6.583-16.6114-5.647-9.7861-13.919-17.4515-24.362-21.9119-11.532-4.9251-24.583-6.0528-36.988-5.0539-13.274 1.0688-25.29 5.4222-37.824 9.519-11.944 3.904-24.454 5.4406-36.946 3.5343-12.586-1.9208-22.096-8.6975-32.712-15.1295-10.867-6.58486-23.2873-10.891582-36.135-9.901568-11.9929.924458-23.0462 5.843878-32.9631 12.415468-9.2786 6.1487-16.9343 13.546-21.2567 23.9575-4.6498 11.1997-4.6457 23.4929 3.0008 33.3906 11.0832 14.347 31.6587 18.0571 48.7767 17.6882 9.9014-.2126 19.6257-2.0082 28.9733-5.2745 12.467-4.3563 23.24-11.7396 34.903-17.7301 5.474-2.8111 11.131-5.1198 17.061-6.7831 5.755-1.6144 11.423-2.355 16.633 1.0985 5.512 3.6536 10.452 7.2425 16.757 9.5295 6.05 2.1943 12.457 3.4214 18.901 3.3719 12.54-.0963 24.9-3.9774 37.079-6.5774 9.93-2.1195 20.556-4.2321 30.681-2.1946 4.226.8505 10.396 2.6059 11.923 6.9679-25.684 4.6241-35.77 36.1785-28.53 59.3415 3.909 12.503 27.398 27.118 36.53 20.545 5.786-4.164 2.274-9.63 0-13.239-4.354-6.911-5.842-15.788 2.214-20.599 6.949-4.15 14.254 5.704 14.393 5.693 1.91-.149 18.413-9.421 29.782-22.9507 11.216.6606 12.918-6.6868 10.24-12.6955-2.679-6.0088-19.395-13.5709-28.409-15.0402z" fill="#000"/><path d="m240.063 390.338c3.711 50.591 242.776 199.541 244.172 203.719.929 2.787-74.413 176.144-74.413 176.144l20.898 8.111s115.561-183.597 109.626-203.16c-8.498-28.009-185.487-184.277-185.487-184.277z" fill="#b28b67"/><path d="m415.322 744.099 34.117 12.407c71.946-81.085 100.146-147.988 95.005-182.076-5.142-34.088-184.849-183.969-184.849-183.969h-121.979c4.162 117.163 225.746 204.042 228.709 209.035 2.965 4.993-26.203 53.892-51.003 144.603z" fill="#afb9c5"/><path d="m407.909 765.649c-1.533-1.483-4.009-1.458-5.387.171-2.828 3.35-7.112 8.759-8.353 12.166-1.905 5.225-3.815 15.884-3.815 15.884 6.069 2.206 109.079 39.657 109.079 39.657s9.369-12.496.616-16.946c-8.752-4.45-14.484-7.555-14.484-7.555l-42.647-41.177c-.738-.713-1.919-.675-2.612.082l-6.3 6.89s-9.92.869-15.221-1.057c-3.368-1.225-7.968-5.303-10.876-8.115z" fill="#afb9c5"/><path d="m267.55 390.338-106.498 255.382-104.6702 215.905h24.6953l270.1829-471.287z" fill="#997659"/><path d="m60.1386 849.151c-1.9475-.869-4.2657 0-5.0013 2.003-1.5117 4.113-3.6852 10.659-3.6852 14.285 0 5.562 1.8548 16.23 1.8548 16.23h116.0791s4.525-14.943-5.224-16.133c-9.748-1.192-16.196-2.152-16.196-2.152l-54.1754-24.124c-.9374-.418-2.0343.02-2.4257.969l-3.5605 8.627s-9.0247 4.206-14.667 4.206c-3.5839 0-9.3031-2.261-12.9988-3.911z" fill="#afb9c5"/><path d="m65.835 816.774 54.873 10.278c42.427-62.305 219.988-317.784 239.456-436.714h-122.16c-65.013 85.975-131.727 363.098-172.169 426.436z" fill="#c5cfd6"/><path d="m512.891 160.471-77.899 23.416 19.889 33.173 60.567-35.69c28.273-1.686 41.631-4.478 40.076-8.376-1.312-3.287-4.433-3.847-7.309-4.363-2.241-.401-4.332-.776-5.301-2.393-2.212-3.691 5.545-13.3 13.296-22.104 7.75-8.804 1.547-9.214-2.198-8.508-12.882 5.237-26.59 13.518-41.121 24.845zm-19.225 209.131-65.557-48.201-14.491 35.869 64.917 26.954c18.36 21.595 28.627 30.597 30.799 27.007 1.831-3.027.401-5.861-.919-8.472-1.027-2.032-1.988-3.931-1.281-5.678 1.613-3.991 13.945-3.57 25.631-2.67 11.687.898 8.281-4.308 5.464-6.879-11.929-7.149-26.785-13.127-44.563-17.93z" fill="#b28b67"/><path d="m326.285 191.595c35.699 66.65 87.322 117.743 162.161 170.854l-28.337 31.993c-83.561-31.093-127.661-49.853-149.319-112.824-5.434-15.805-9.234-66.187-12.492-92.694z" fill="#2733a8"/><path d="m226.487 413.657h158.245s-53.767-164.195-54.934-225.385c-.04-2.079-3.876-5.744-5.572-5.265-18.617 5.265-39.842-3.937-39.842-3.937-37.516 60.413-50.489 134.793-57.897 234.587z" fill="#f2f2f2"/><g fill="#2c49f4"><path d="m324.078 271.24c24.715 106.152 23.576 193.049-30.99 193.049h-84.376c-13.401-90.176 21.819-215.207 54.472-278.27 1.246-2.409 3.901-6.948 10.154-6.948h24.517c.011.032.022.065.033.097 7.377.061 15.502.331 24.301.623 45.297 1.506 108.457 3.605 179.528-19.24l8.379 41.923c-64.148 41.309-129.103 73.309-186.018 68.766z"/><path d="m708.884 156.719c-50.322 0-91.116 40.794-91.116 91.116s40.794 91.116 91.116 91.116c50.321 0 91.116-40.794 91.116-91.116s-40.795-91.116-91.116-91.116zm-30.675 70.881c0-3.754 3.041-6.796 6.795-6.796 3.752 0 6.795 3.042 6.795 6.796 0 3.752-3.043 6.795-6.795 6.795-3.754 0-6.795-3.043-6.795-6.795zm6.795-14.085c-7.779 0-14.085 6.305-14.085 14.085 0 7.778 6.306 14.085 14.085 14.085s14.085-6.307 14.085-14.085c0-7.78-6.306-14.085-14.085-14.085zm54.779 10.398c1.423-1.423 1.423-3.732 0-5.155s-3.732-1.423-5.155 0l-58.466 58.467c-1.423 1.424-1.423 3.731 0 5.154s3.73 1.423 5.154 0zm-8.842 42.829c-3.752 0-6.795 3.043-6.795 6.795 0 3.754 3.043 6.795 6.795 6.795 3.754 0 6.796-3.041 6.796-6.795 0-3.752-3.042-6.795-6.796-6.795zm-14.085 6.795c0-7.78 6.306-14.085 14.085-14.085 7.78 0 14.085 6.305 14.085 14.085 0 7.779-6.305 14.085-14.085 14.085-7.779 0-14.085-6.306-14.085-14.085z"/></g></g></svg>