<svg fill="none" height="953" viewBox="0 0 800 953" width="800" xmlns="http://www.w3.org/2000/svg" xmlns:xlink="http://www.w3.org/1999/xlink"><clipPath id="a"><path d="m0 0h800v952.707h-800z"/></clipPath><g clip-path="url(#a)" clip-rule="evenodd" fill-rule="evenodd"><path d="m324.449 202.786c-12.588 11.77-25.878 18.99-32.903 18.689-17.609-.755-32.127-61.51-24.328-88.336 7.802-26.826 71.984-51.4381 85.472-4.44 4.682 16.312.871 32.568-6.839 46.81l36.667 81.939-53.504 11.371z" fill="#b28b67"/><path d="m355.763 127.776c1.24-.124 2.484-.318 3.731-.582 18.468-3.926 30.259-22.081 26.332-40.5495-3.925-18.4688-22.079-30.2585-40.547-26.3328-18.311 3.8918-30.056 21.7687-26.432 40.0723-28.857-3.5984-61.427 14.697-52.119 35.531 5.71 12.783 22.145 16.593 38.915 20.481.78.181 1.562.362 2.341.544 1.484-4.58 5.381-8.291 10.525-9.384 7.581-1.611 14.998 3.071 16.568 10.459.565 2.661.296 5.31-.636 7.685 6.366 3.532 11.35 8.351 13.819 15.451 8.658-1.84 17.249-30.237 7.503-53.375z" fill="#191847"/><path d="m501.424 407.977-169.361 283.138-126.97 239.369h-27.349l212.742-522.507z" fill="#997659"/><path d="m215.497 916.887c2.443-1.074 5.345.013 6.255 2.523 1.66 4.574 3.887 11.437 3.887 15.305 0 6.165-2.054 17.992-2.054 17.992-7.152 0-128.5516 0-128.5516 0s-5.011-16.566 5.7846-17.887c10.796-1.32 17.937-2.385 17.937-2.385l59.75-26.637c1.173-.524 2.546.025 3.035 1.213l3.841 9.317s9.994 4.664 16.242 4.664c3.804 0 9.78-2.305 13.874-4.105z" fill="#e4e4e4"/><path d="m240.355 892.154-52.74-15.954s34.661-103.617 84.963-228.055c50.302-124.435 108.048-240.168 108.048-240.168h148.958s-64.199 146.397-136.117 266.039c-71.92 119.645-153.112 218.138-153.112 218.138z" fill="#2733a8"/><path d="m512.553 407.977c15.984 99.496 46.813 226.614 49.723 230.539 1.94 2.614 71.768 26.012 209.484 70.194l-5.908 24.117c-164.225-23.695-250.76-42.079-259.598-55.15-13.261-19.608-79.472-174.514-105.117-269.7z" fill="#b28b67"/><path d="m723.35 687.863-10.405 38.842c-122.833 10.774-198.094 2.988-225.784-23.353-27.692-26.341-59.253-124.8-94.681-295.375h142.04c22.448 139.678 34.998 212.449 37.648 218.313 2.653 5.862 53.046 26.389 151.182 61.573z" fill="#2c49f4"/><path d="m761.411 704.443c-.636-2.592.939-5.263 3.569-5.723 4.795-.839 11.938-1.84 15.747-1.169 6.072 1.071 17.363 5.148 17.363 5.148-1.242 7.043-22.323 126.599-22.323 126.599s-17.185 2.058-16.61-8.805c.574-10.86.765-18.079.765-18.079l-15.856-63.466c-.312-1.245.467-2.503 1.721-2.779l9.841-2.165s6.33-9.032 7.415-15.186c.658-3.745-.57-10.031-1.632-14.375z" fill="#e4e4e4"/><path d="m164.93 423.706 88.412-20.791-.624 43.426-78.545-.857c-28.27 14.177-42.746 18.933-43.427 14.268-.575-3.934 2.129-6.227 4.619-8.337 1.94-1.646 3.75-3.18 3.78-5.295.07-4.832-12.814-9.848-25.24-14.081-12.426-4.235-6.661-8.105-2.644-9.513 15.385-2.111 33.275-1.717 53.669 1.18zm487.938 49.468c-11.093-10.256-128.148-152.118-128.148-152.118l-46.525 18.06s142.837 143.043 149.242 149.917c8.321 8.932 6.972 27.065 6.056 39.362-.142 1.901-.272 3.665-.356 5.23 7.986.434 9.844-4.508 11.804-9.718 2.213-5.885 4.554-12.114 15.998-11.323 4.421.305 8.763 1.005 13.005 1.691 14.653 2.364 28.114 4.536 39.539-10.448 1.81-2.375 2.296-8.889-5.643-10.785-19.776-4.725-49.55-14.854-54.972-19.868z" fill="#997659"/><path d="m340.369 222.27-35.549 16.434c22.218 84.734-7.013 154.865-123.257 179.542l25.625 110.265c107.492-26.076 181.568-101.554 157.363-219.631-6.268-30.566-13.985-61.916-24.182-86.61z" fill="#afb9c5"/><path d="m638.384 454.545c-77.062-125.046-170.546-208.786-280.451-251.225l-3.501 1.344-.118.046-.016.045-50.416 33.877c25.488 66.395 29.759 121.678 33.866 174.826 1.776 22.952 3.517 45.505 6.925 68.383l149.281-57.301c11.373 23.343 22.194 47.674 32.654 72.911z" fill="#c5cfd6"/><path d="m493.953 424.54c-23.157-47.53-48.609-90.983-77.983-129.734 20.668 45.565 43.642 103.115 47.642 141.381z" fill="#000" fill-opacity=".1"/><path d="m49.856 148.148 160.639 66.539-40.582 98.079-10.709-4.435-9.276 22.418-12.142-31.289-128.51159-53.231z" fill="#2c49f4"/></g></svg>