<svg fill="none" height="2400" viewBox="0 0 2400 2400" width="2400" xmlns="http://www.w3.org/2000/svg"><g stroke="#000"><path d="m1182.27 1124.67 55.68 9.82c22.68 3.99 37.82 25.62 33.82 48.3l-9.82 55.68c-3.99 22.67-25.62 37.82-48.3 33.82l-55.68-9.82c-22.68-4-37.82-25.62-33.82-48.3l9.82-55.68c4-22.68 25.62-37.82 48.3-33.82z" stroke-opacity=".35"/><path d="m1165.77 1090.35 84.49 7.39c34.6 3.03 60.2 33.53 57.17 68.14l-7.39 84.48c-3.03 34.61-33.53 60.2-68.14 57.18l-84.48-7.39c-34.61-3.03-60.2-33.54-57.18-68.14l7.39-84.49c3.03-34.6 33.54-60.2 68.14-57.17z" stroke-opacity=".35"/><path d="m1139.22 1050.88h118.73c48.79 0 88.34 39.55 88.34 88.34v118.73c0 48.79-39.55 88.34-88.34 88.34h-118.73c-48.79 0-88.34-39.55-88.34-88.34v-118.73c0-48.79 39.55-88.34 88.34-88.34z" stroke-opacity=".3"/><path d="m1103.5 1009.44 157.7-13.799c64.93-5.682 122.17 42.349 127.86 107.289l13.79 157.7c5.68 64.93-42.35 122.18-107.28 127.86l-157.7 13.79c-64.94 5.68-122.18-42.35-127.86-107.28l-13.8-157.7c-5.681-64.94 42.35-122.18 107.29-127.86z" stroke-opacity=".3"/><path d="m1055.05 967.828 200.44-35.343c82.64-14.572 161.44 40.609 176.02 123.255l35.35 200.44c14.57 82.64-40.61 161.45-123.26 176.02l-200.44 35.33c-82.64 14.58-161.448-40.6-176.019-123.24l-35.345-200.44c-14.571-82.64 40.61-161.45 123.254-176.022z" stroke-opacity=".25"/><path d="m994.388 925.148 245.752-65.848c101.41-27.174 205.66 33.011 232.82 134.426l65.85 245.744c27.18 101.42-33 205.66-134.42 232.84l-245.75 65.84c-101.41 27.18-205.655-33.01-232.829-134.42l-65.847-245.75c-27.175-101.42 33.009-205.658 134.424-232.832z" stroke-opacity=".25"/><path d="m920.453 887.685 292.197-106.353c120.67-43.92 254.09 18.296 298.01 138.963l106.36 292.205c43.91 120.66-18.31 254.09-138.97 298l-292.2 106.36c-120.67 43.92-254.09-18.3-298.008-138.97l-106.353-292.2c-43.92-120.66 18.296-254.087 138.964-298.005z" stroke-opacity=".2"/><path d="m833.441 856.219 338.189-157.698c139.72-65.156 305.81-4.704 370.97 135.022l157.7 338.187c65.16 139.72 4.7 305.81-135.03 370.97l-338.18 157.7c-139.73 65.15-305.818 4.7-370.973-135.03l-157.698-338.18c-65.156-139.73-4.703-305.817 135.022-370.971z" stroke-opacity=".2"/><path d="m733.428 833.121 381.912-220.494c157.85-91.137 359.7-37.052 450.84 120.801l220.49 381.912c91.14 157.85 37.05 359.7-120.8 450.84l-381.91 220.49c-157.85 91.14-359.702 37.05-450.839-120.8l-220.494-381.91c-91.137-157.85-37.052-359.702 120.801-450.839z" stroke-opacity=".15"/><path d="m620.374 820.951 421.446-295.098c174.25-122.009 414.41-79.663 536.43 94.586l295.09 421.441c122.01 174.25 79.66 414.42-94.58 536.42l-421.45 295.1c-174.25 122.01-414.413 79.66-536.423-94.59l-295.098-421.44c-122.01-174.25-79.662-414.409 94.585-536.419z" stroke-opacity=".15"/><g stroke-opacity=".1"><path d="m495.583 822.48 454.755-381.584c188.062-157.807 468.442-133.277 626.252 54.79l381.59 454.755c157.81 188.069 133.28 468.459-54.79 626.249l-454.75 381.6c-188.07 157.79-468.456 133.27-626.262-54.8l-381.585-454.76c-157.806-188.06-133.276-468.443 54.79-626.25z"/><path d="m360.299 840.7 479.733-479.733c198.438-198.437 520.168-198.437 718.598 0l479.73 479.733c198.45 198.44 198.45 520.16 0 718.59l-479.73 479.75c-198.43 198.43-520.16 198.43-718.598 0l-479.733-479.75c-198.435-198.43-198.435-520.15 0-718.59z"/></g></g></svg>